<?xml version="1.0" encoding="UTF-8" standalone="no"?>
<!DOCTYPE svg PUBLIC "-//W3C//DTD SVG 1.1//EN"
 "http://www.w3.org/Graphics/SVG/1.1/DTD/svg11.dtd">
<!-- Generated by graphviz version 2.43.0 (0)
 -->
<!-- Title: ObjectGraph Pages: 1 -->
<svg width="516pt" height="224pt"
 viewBox="0.00 0.00 515.50 224.00" xmlns="http://www.w3.org/2000/svg" xmlns:xlink="http://www.w3.org/1999/xlink">
<g id="graph0" class="graph" transform="scale(1 1) rotate(0) translate(4 220)">
<title>ObjectGraph</title>
<polygon fill="white" stroke="transparent" points="-4,4 -4,-220 511.5,-220 511.5,4 -4,4"/>
<!-- o140037496511872 -->
<g id="node1" class="node">
<title>o140037496511872</title>
<polygon fill="#ffffff" stroke="black" points="507.5,-216 272.5,-216 272.5,-178 507.5,-178 507.5,-216"/>
<text text-anchor="middle" x="390" y="-200.8" font-family="Times,serif" font-size="14.00" fill="red">function</text>
<text text-anchor="middle" x="390" y="-185.8" font-family="Times,serif" font-size="14.00" fill="red">&lt;function gen_foo at 0x7f5d053c1d80&gt;</text>
</g>
<!-- o140037496606544 -->
<g id="node2" class="node">
<title>o140037496606544</title>
<polygon fill="#a5a5a5" stroke="black" points="336,-127 86,-127 86,-89 336,-89 336,-127"/>
<text text-anchor="middle" x="211" y="-111.8" font-family="Times,serif" font-size="14.00">code</text>
<text text-anchor="middle" x="211" y="-96.8" font-family="Times,serif" font-size="14.00">&lt;code object gen_foo at 0x7f5d053d8f50, </text>
</g>
<!-- o140037496511872&#45;&gt;o140037496606544 -->
<g id="edge1" class="edge">
<title>o140037496511872&#45;&gt;o140037496606544</title>
<path fill="none" stroke="black" d="M352.91,-177.97C325.19,-164.5 287.11,-145.99 257.38,-131.54"/>
<polygon fill="black" stroke="black" points="258.57,-128.23 248.04,-127 255.51,-134.52 258.57,-128.23"/>
<text text-anchor="middle" x="338.5" y="-148.8" font-family="Times,serif" font-size="14.00">__code__</text>
</g>
<!-- o140037804072256 -->
<g id="node3" class="node">
<title>o140037804072256</title>
<polygon fill="#a5a5a5" stroke="black" points="425.5,-127 354.5,-127 354.5,-89 425.5,-89 425.5,-127"/>
<text text-anchor="middle" x="390" y="-111.8" font-family="Times,serif" font-size="14.00">dict</text>
<text text-anchor="middle" x="390" y="-96.8" font-family="Times,serif" font-size="14.00">119 items</text>
</g>
<!-- o140037496511872&#45;&gt;o140037804072256 -->
<g id="edge2" class="edge">
<title>o140037496511872&#45;&gt;o140037804072256</title>
<path fill="none" stroke="black" d="M390,-177.97C390,-166.19 390,-150.56 390,-137.16"/>
<polygon fill="black" stroke="black" points="393.5,-137 390,-127 386.5,-137 393.5,-137"/>
<text text-anchor="middle" x="423.5" y="-148.8" font-family="Times,serif" font-size="14.00">__globals__</text>
</g>
<!-- too_many_o140037496511872 -->
<g id="node4" class="node">
<title>too_many_o140037496511872</title>
<polygon fill="#a50000" stroke="red" points="506,-117 444,-117 444,-99 506,-99 506,-117"/>
<text text-anchor="middle" x="475" y="-106.7" font-family="Times,serif" font-size="6.00" fill="white">5 more references</text>
</g>
<!-- o140037496511872&#45;&gt;too_many_o140037496511872 -->
<g id="edge3" class="edge">
<title>o140037496511872&#45;&gt;too_many_o140037496511872</title>
<path fill="none" stroke="red" stroke-dasharray="1,5" d="M439.38,-177.84C447.49,-173.06 455.14,-167.17 461,-160 468.51,-150.81 472,-137.9 473.62,-127.37"/>
<polygon fill="red" stroke="red" points="477.13,-127.48 474.75,-117.16 470.17,-126.72 477.13,-127.48"/>
</g>
<!-- o140037847624944 -->
<g id="node5" class="node">
<title>o140037847624944</title>
<polygon fill="#4c4c4c" stroke="black" points="76,-38 0,-38 0,0 76,0 76,-38"/>
<text text-anchor="middle" x="38" y="-22.8" font-family="Times,serif" font-size="14.00" fill="white">str</text>
<text text-anchor="middle" x="38" y="-7.8" font-family="Times,serif" font-size="14.00" fill="white">&#39;__main__&#39;</text>
</g>
<!-- o140037804072256&#45;&gt;o140037847624944 -->
<g id="edge4" class="edge">
<title>o140037804072256&#45;&gt;o140037847624944</title>
<path fill="none" stroke="black" d="M354.39,-91.92C351.24,-90.84 348.08,-89.85 345,-89 295.54,-75.39 281.38,-80.66 231,-71 168.73,-59.06 150.37,-57.42 85.92,-38.08"/>
<polygon fill="black" stroke="black" points="86.65,-34.65 76.06,-35.1 84.62,-41.35 86.65,-34.65"/>
<text text-anchor="middle" x="260" y="-59.8" font-family="Times,serif" font-size="14.00">__name__</text>
</g>
<!-- o140037821794992 -->
<g id="node6" class="node">
<title>o140037821794992</title>
<polygon fill="#4c4c4c" stroke="black" points="338,-38 94,-38 94,0 338,0 338,-38"/>
<text text-anchor="middle" x="216" y="-22.8" font-family="Times,serif" font-size="14.00" fill="white">str</text>
<text text-anchor="middle" x="216" y="-7.8" font-family="Times,serif" font-size="14.00" fill="white">&#39;Automatically created module for IPytho</text>
</g>
<!-- o140037804072256&#45;&gt;o140037821794992 -->
<g id="edge5" class="edge">
<title>o140037804072256&#45;&gt;o140037821794992</title>
<path fill="none" stroke="black" d="M354.37,-89.18C327.45,-75.73 290.32,-57.16 261.3,-42.65"/>
<polygon fill="black" stroke="black" points="262.69,-39.43 252.18,-38.09 259.56,-45.69 262.69,-39.43"/>
<text text-anchor="middle" x="337.5" y="-59.8" font-family="Times,serif" font-size="14.00">__doc__</text>
</g>
<!-- too_many_o140037804072256 -->
<g id="node7" class="node">
<title>too_many_o140037804072256</title>
<polygon fill="#4c0000" stroke="red" points="424,-28 356,-28 356,-10 424,-10 424,-28"/>
<text text-anchor="middle" x="390" y="-17.7" font-family="Times,serif" font-size="6.00" fill="white">117 more references</text>
</g>
<!-- o140037804072256&#45;&gt;too_many_o140037804072256 -->
<g id="edge6" class="edge">
<title>o140037804072256&#45;&gt;too_many_o140037804072256</title>
<path fill="none" stroke="red" stroke-dasharray="1,5" d="M390,-88.97C390,-74.06 390,-52.98 390,-38.06"/>
<polygon fill="red" stroke="red" points="393.5,-38.05 390,-28.05 386.5,-38.05 393.5,-38.05"/>
</g>
</g>
</svg>
