<?xml version="1.0" encoding="UTF-8" standalone="no"?>
<!DOCTYPE svg PUBLIC "-//W3C//DTD SVG 1.1//EN"
 "http://www.w3.org/Graphics/SVG/1.1/DTD/svg11.dtd">
<!-- Generated by graphviz version 2.43.0 (0)
 -->
<!-- Title: ObjectGraph Pages: 1 -->
<svg width="1057pt" height="194pt"
 viewBox="0.00 0.00 1056.50 194.00" xmlns="http://www.w3.org/2000/svg" xmlns:xlink="http://www.w3.org/1999/xlink">
<g id="graph0" class="graph" transform="scale(1 1) rotate(0) translate(4 190)">
<title>ObjectGraph</title>
<polygon fill="white" stroke="transparent" points="-4,4 -4,-190 1052.5,-190 1052.5,4 -4,4"/>
<!-- o140037542913136 -->
<g id="node1" class="node">
<title>o140037542913136</title>
<polygon fill="#ffffff" stroke="black" points="1048.5,-186 839.5,-186 839.5,-148 1048.5,-148 1048.5,-186"/>
<text text-anchor="middle" x="944" y="-170.8" font-family="Times,serif" font-size="14.00" fill="red">frame</text>
<text text-anchor="middle" x="944" y="-155.8" font-family="Times,serif" font-size="14.00" fill="red">/tmp/ipykernel_84/604005253.py:5</text>
</g>
<!-- o140037498592064 -->
<g id="node2" class="node">
<title>o140037498592064</title>
<polygon fill="#a5a5a5" stroke="black" points="633,-112 417,-112 417,-74 633,-74 633,-112"/>
<text text-anchor="middle" x="525" y="-96.8" font-family="Times,serif" font-size="14.00">frame</text>
<text text-anchor="middle" x="525" y="-81.8" font-family="Times,serif" font-size="14.00">/tmp/ipykernel_84/4225256379.py:4</text>
</g>
<!-- o140037542913136&#45;&gt;o140037498592064 -->
<g id="edge1" class="edge">
<title>o140037542913136&#45;&gt;o140037498592064</title>
<path fill="none" stroke="black" d="M839.35,-148.02C778.61,-137.58 702.02,-124.42 639.65,-113.7"/>
<polygon fill="black" stroke="black" points="640.22,-110.25 629.77,-112 639.03,-117.15 640.22,-110.25"/>
</g>
<!-- o140037496612176 -->
<g id="node3" class="node">
<title>o140037496612176</title>
<polygon fill="#a5a5a5" stroke="black" points="894.5,-112 651.5,-112 651.5,-74 894.5,-74 894.5,-112"/>
<text text-anchor="middle" x="773" y="-96.8" font-family="Times,serif" font-size="14.00">code</text>
<text text-anchor="middle" x="773" y="-81.8" font-family="Times,serif" font-size="14.00">&lt;code object foo at 0x7f5d053da550, file</text>
</g>
<!-- o140037542913136&#45;&gt;o140037496612176 -->
<g id="edge2" class="edge">
<title>o140037542913136&#45;&gt;o140037496612176</title>
<path fill="none" stroke="black" d="M900.85,-147.83C877.88,-138.16 849.45,-126.19 825.24,-115.99"/>
<polygon fill="black" stroke="black" points="826.41,-112.69 815.84,-112.04 823.7,-119.14 826.41,-112.69"/>
</g>
<!-- too_many_o140037542913136 -->
<g id="node4" class="node">
<title>too_many_o140037542913136</title>
<polygon fill="#a50000" stroke="red" points="975,-102 913,-102 913,-84 975,-84 975,-102"/>
<text text-anchor="middle" x="944" y="-91.7" font-family="Times,serif" font-size="6.00" fill="white">3 more references</text>
</g>
<!-- o140037542913136&#45;&gt;too_many_o140037542913136 -->
<g id="edge3" class="edge">
<title>o140037542913136&#45;&gt;too_many_o140037542913136</title>
<path fill="none" stroke="red" stroke-dasharray="1,5" d="M944,-147.83C944,-136.95 944,-123.16 944,-112.26"/>
<polygon fill="red" stroke="red" points="947.5,-112.19 944,-102.19 940.5,-112.19 947.5,-112.19"/>
</g>
<!-- o140037498586688 -->
<g id="node5" class="node">
<title>o140037498586688</title>
<polygon fill="#4c4c4c" stroke="black" points="216,-38 0,-38 0,0 216,0 216,-38"/>
<text text-anchor="middle" x="108" y="-22.8" font-family="Times,serif" font-size="14.00" fill="white">frame</text>
<text text-anchor="middle" x="108" y="-7.8" font-family="Times,serif" font-size="14.00" fill="white">/tmp/ipykernel_84/4225256379.py:5</text>
</g>
<!-- o140037498592064&#45;&gt;o140037498586688 -->
<g id="edge4" class="edge">
<title>o140037498592064&#45;&gt;o140037498586688</title>
<path fill="none" stroke="black" d="M420.58,-73.97C360.36,-63.57 284.57,-50.49 222.7,-39.8"/>
<polygon fill="black" stroke="black" points="222.95,-36.3 212.5,-38.04 221.76,-43.19 222.95,-36.3"/>
</g>
<!-- o140037496605312 -->
<g id="node6" class="node">
<title>o140037496605312</title>
<polygon fill="#4c4c4c" stroke="black" points="476,-38 234,-38 234,0 476,0 476,-38"/>
<text text-anchor="middle" x="355" y="-22.8" font-family="Times,serif" font-size="14.00" fill="white">code</text>
<text text-anchor="middle" x="355" y="-7.8" font-family="Times,serif" font-size="14.00" fill="white">&lt;code object bar at 0x7f5d053d8a80, file</text>
</g>
<!-- o140037498592064&#45;&gt;o140037496605312 -->
<g id="edge5" class="edge">
<title>o140037498592064&#45;&gt;o140037496605312</title>
<path fill="none" stroke="black" d="M482.1,-73.83C459.26,-64.16 431,-52.19 406.93,-41.99"/>
<polygon fill="black" stroke="black" points="408.16,-38.72 397.59,-38.04 405.43,-45.16 408.16,-38.72"/>
</g>
<!-- too_many_o140037498592064 -->
<g id="node7" class="node">
<title>too_many_o140037498592064</title>
<polygon fill="#4c0000" stroke="red" points="556,-28 494,-28 494,-10 556,-10 556,-28"/>
<text text-anchor="middle" x="525" y="-17.7" font-family="Times,serif" font-size="6.00" fill="white">3 more references</text>
</g>
<!-- o140037498592064&#45;&gt;too_many_o140037498592064 -->
<g id="edge6" class="edge">
<title>o140037498592064&#45;&gt;too_many_o140037498592064</title>
<path fill="none" stroke="red" stroke-dasharray="1,5" d="M525,-73.83C525,-62.95 525,-49.16 525,-38.26"/>
<polygon fill="red" stroke="red" points="528.5,-38.19 525,-28.19 521.5,-38.19 528.5,-38.19"/>
</g>
</g>
</svg>
