<?xml version="1.0" encoding="UTF-8" standalone="no"?>
<!DOCTYPE svg PUBLIC "-//W3C//DTD SVG 1.1//EN"
 "http://www.w3.org/Graphics/SVG/1.1/DTD/svg11.dtd">
<!-- Generated by graphviz version 2.43.0 (0)
 -->
<!-- Title: ObjectGraph Pages: 1 -->
<svg width="1857pt" height="463pt"
 viewBox="0.00 0.00 1857.00 463.00" xmlns="http://www.w3.org/2000/svg" xmlns:xlink="http://www.w3.org/1999/xlink">
<g id="graph0" class="graph" transform="scale(1 1) rotate(0) translate(4 459)">
<title>ObjectGraph</title>
<polygon fill="white" stroke="transparent" points="-4,4 -4,-459 1853,-459 1853,4 -4,4"/>
<!-- o140037798498240 -->
<g id="node1" class="node">
<title>o140037798498240</title>
<polygon fill="#ffffff" stroke="black" points="1589.5,-455 1380.5,-455 1380.5,-417 1589.5,-417 1589.5,-455"/>
<text text-anchor="middle" x="1485" y="-439.8" font-family="Times,serif" font-size="14.00" fill="red">frame</text>
<text text-anchor="middle" x="1485" y="-424.8" font-family="Times,serif" font-size="14.00" fill="red">/tmp/ipykernel_84/167722926.py:4</text>
</g>
<!-- o140037498235104 -->
<g id="node2" class="node">
<title>o140037498235104</title>
<polygon fill="#c3c3c3" stroke="black" points="1440.5,-380 1237.5,-380 1237.5,-342 1440.5,-342 1440.5,-380"/>
<text text-anchor="middle" x="1339" y="-364.8" font-family="Times,serif" font-size="14.00">frame</text>
<text text-anchor="middle" x="1339" y="-349.8" font-family="Times,serif" font-size="14.00">/tmp/ipykernel_84/35968818.py:4</text>
</g>
<!-- o140037798498240&#45;&gt;o140037498235104 -->
<g id="edge1" class="edge">
<title>o140037798498240&#45;&gt;o140037498235104</title>
<path fill="none" stroke="black" d="M1448.91,-416.96C1429.34,-407.17 1404.98,-394.99 1384.16,-384.58"/>
<polygon fill="black" stroke="black" points="1385.69,-381.43 1375.18,-380.09 1382.56,-387.69 1385.69,-381.43"/>
</g>
<!-- o140037498631808 -->
<g id="node3" class="node">
<title>o140037498631808</title>
<polygon fill="#c3c3c3" stroke="black" points="1769,-380 1513,-380 1513,-342 1769,-342 1769,-380"/>
<text text-anchor="middle" x="1641" y="-364.8" font-family="Times,serif" font-size="14.00">code</text>
<text text-anchor="middle" x="1641" y="-349.8" font-family="Times,serif" font-size="14.00">&lt;code object gen_frame_graph at 0x7f5d05</text>
</g>
<!-- o140037798498240&#45;&gt;o140037498631808 -->
<g id="edge2" class="edge">
<title>o140037798498240&#45;&gt;o140037498631808</title>
<path fill="none" stroke="black" d="M1523.56,-416.96C1544.56,-407.13 1570.74,-394.88 1593.04,-384.44"/>
<polygon fill="black" stroke="black" points="1594.77,-387.5 1602.34,-380.09 1591.8,-381.16 1594.77,-387.5"/>
</g>
<!-- o140037847756736 -->
<g id="node4" class="node">
<title>o140037847756736</title>
<polygon fill="#c3c3c3" stroke="black" points="591.5,-202 520.5,-202 520.5,-164 591.5,-164 591.5,-202"/>
<text text-anchor="middle" x="556" y="-186.8" font-family="Times,serif" font-size="14.00">dict</text>
<text text-anchor="middle" x="556" y="-171.8" font-family="Times,serif" font-size="14.00">158 items</text>
</g>
<!-- o140037798498240&#45;&gt;o140037847756736 -->
<g id="edge3" class="edge">
<title>o140037798498240&#45;&gt;o140037847756736</title>
<path fill="none" stroke="black" d="M1380.49,-430.06C1227.14,-419.67 934.71,-387.8 707,-291 659.43,-270.78 612.02,-233.72 583.35,-208.97"/>
<polygon fill="black" stroke="black" points="585.6,-206.29 575.78,-202.34 580.99,-211.56 585.6,-206.29"/>
</g>
<!-- o140037804072256 -->
<g id="node5" class="node">
<title>o140037804072256</title>
<polygon fill="#c3c3c3" stroke="black" points="1498.5,-202 1427.5,-202 1427.5,-164 1498.5,-164 1498.5,-202"/>
<text text-anchor="middle" x="1463" y="-186.8" font-family="Times,serif" font-size="14.00">dict</text>
<text text-anchor="middle" x="1463" y="-171.8" font-family="Times,serif" font-size="14.00">165 items</text>
</g>
<!-- o140037798498240&#45;&gt;o140037804072256 -->
<g id="edge4" class="edge">
<title>o140037798498240&#45;&gt;o140037804072256</title>
<path fill="none" stroke="black" d="M1483.42,-416.95C1479.64,-373.82 1470.06,-264.5 1465.49,-212.42"/>
<polygon fill="black" stroke="black" points="1468.96,-211.88 1464.6,-202.22 1461.98,-212.49 1468.96,-211.88"/>
<text text-anchor="middle" x="1501.5" y="-312.8" font-family="Times,serif" font-size="14.00">f_globals</text>
</g>
<!-- too_many_o140037798498240 -->
<g id="node6" class="node">
<title>too_many_o140037798498240</title>
<polygon fill="#c30000" stroke="red" points="1849,-370 1787,-370 1787,-352 1849,-352 1849,-370"/>
<text text-anchor="middle" x="1818" y="-359.7" font-family="Times,serif" font-size="6.00" fill="white">1 more references</text>
</g>
<!-- o140037798498240&#45;&gt;too_many_o140037798498240 -->
<g id="edge5" class="edge">
<title>o140037798498240&#45;&gt;too_many_o140037798498240</title>
<path fill="none" stroke="red" stroke-dasharray="1,5" d="M1589.53,-421.54C1646.11,-412.73 1716.77,-399.22 1778,-380 1783.05,-378.42 1788.3,-376.37 1793.28,-374.22"/>
<polygon fill="red" stroke="red" points="1794.73,-377.4 1802.38,-370.07 1791.83,-371.03 1794.73,-377.4"/>
</g>
<!-- o140037498235104&#45;&gt;o140037847756736 -->
<g id="edge8" class="edge">
<title>o140037498235104&#45;&gt;o140037847756736</title>
<path fill="none" stroke="black" d="M1237.03,-355.01C1128.37,-347.81 952.11,-330.69 805,-291 743.08,-274.29 730.91,-260.35 672,-235 648.5,-224.89 622.41,-213.44 600.94,-203.95"/>
<polygon fill="black" stroke="black" points="602.29,-200.73 591.73,-199.88 599.46,-207.13 602.29,-200.73"/>
</g>
<!-- o140037498235104&#45;&gt;o140037804072256 -->
<g id="edge9" class="edge">
<title>o140037498235104&#45;&gt;o140037804072256</title>
<path fill="none" stroke="black" d="M1351.8,-341.83C1373.77,-310.66 1418.71,-246.86 1444.22,-210.65"/>
<polygon fill="black" stroke="black" points="1447.37,-212.26 1450.27,-202.07 1441.65,-208.23 1447.37,-212.26"/>
<text text-anchor="middle" x="1439.5" y="-268.3" font-family="Times,serif" font-size="14.00">f_globals</text>
</g>
<!-- o94892726782416 -->
<g id="node7" class="node">
<title>o94892726782416</title>
<polygon fill="#878787" stroke="black" points="1023.5,-291 814.5,-291 814.5,-253 1023.5,-253 1023.5,-291"/>
<text text-anchor="middle" x="919" y="-275.8" font-family="Times,serif" font-size="14.00">frame</text>
<text text-anchor="middle" x="919" y="-260.8" font-family="Times,serif" font-size="14.00">/tmp/ipykernel_84/639855734.py:1</text>
</g>
<!-- o140037498235104&#45;&gt;o94892726782416 -->
<g id="edge6" class="edge">
<title>o140037498235104&#45;&gt;o94892726782416</title>
<path fill="none" stroke="black" d="M1251.98,-341.97C1183.13,-327.71 1087.06,-307.81 1015.8,-293.05"/>
<polygon fill="black" stroke="black" points="1016.41,-289.6 1005.91,-291 1014.99,-296.46 1016.41,-289.6"/>
</g>
<!-- o140037498623184 -->
<g id="node8" class="node">
<title>o140037498623184</title>
<polygon fill="#878787" stroke="black" points="1290,-291 1042,-291 1042,-253 1290,-253 1290,-291"/>
<text text-anchor="middle" x="1166" y="-275.8" font-family="Times,serif" font-size="14.00">code</text>
<text text-anchor="middle" x="1166" y="-260.8" font-family="Times,serif" font-size="14.00">&lt;code object func_a at 0x7f5d055c54d0, f</text>
</g>
<!-- o140037498235104&#45;&gt;o140037498623184 -->
<g id="edge7" class="edge">
<title>o140037498235104&#45;&gt;o140037498623184</title>
<path fill="none" stroke="black" d="M1303.15,-341.97C1276.36,-328.5 1239.56,-309.99 1210.82,-295.54"/>
<polygon fill="black" stroke="black" points="1212.31,-292.37 1201.8,-291 1209.16,-298.62 1212.31,-292.37"/>
</g>
<!-- too_many_o140037498235104 -->
<g id="node9" class="node">
<title>too_many_o140037498235104</title>
<polygon fill="#870000" stroke="red" points="1370,-281 1308,-281 1308,-263 1370,-263 1370,-281"/>
<text text-anchor="middle" x="1339" y="-270.7" font-family="Times,serif" font-size="6.00" fill="white">1 more references</text>
</g>
<!-- o140037498235104&#45;&gt;too_many_o140037498235104 -->
<g id="edge10" class="edge">
<title>o140037498235104&#45;&gt;too_many_o140037498235104</title>
<path fill="none" stroke="red" stroke-dasharray="1,5" d="M1339,-341.97C1339,-327.06 1339,-305.98 1339,-291.06"/>
<polygon fill="red" stroke="red" points="1342.5,-291.05 1339,-281.05 1335.5,-291.05 1342.5,-291.05"/>
</g>
<!-- o140037847756656 -->
<g id="node10" class="node">
<title>o140037847756656</title>
<polygon fill="#878787" stroke="black" points="62,-113 0,-113 0,-75 62,-75 62,-113"/>
<text text-anchor="middle" x="31" y="-97.8" font-family="Times,serif" font-size="14.00">str</text>
<text text-anchor="middle" x="31" y="-82.8" font-family="Times,serif" font-size="14.00">&#39;builtins&#39;</text>
</g>
<!-- o140037847756736&#45;&gt;o140037847756656 -->
<g id="edge11" class="edge">
<title>o140037847756736&#45;&gt;o140037847756656</title>
<path fill="none" stroke="black" d="M520.19,-179.29C459.44,-174.42 332.41,-163.09 226,-146 159.58,-135.33 139.71,-134.93 72.06,-113.03"/>
<polygon fill="black" stroke="black" points="72.79,-109.58 62.19,-109.8 70.61,-116.24 72.79,-109.58"/>
<text text-anchor="middle" x="255" y="-134.8" font-family="Times,serif" font-size="14.00">__name__</text>
</g>
<!-- o140037847649776 -->
<g id="node11" class="node">
<title>o140037847649776</title>
<polygon fill="#878787" stroke="black" points="312,-113 80,-113 80,-75 312,-75 312,-113"/>
<text text-anchor="middle" x="196" y="-97.8" font-family="Times,serif" font-size="14.00">str</text>
<text text-anchor="middle" x="196" y="-82.8" font-family="Times,serif" font-size="14.00">&quot;Built&#45;in functions, exceptions, and oth</text>
</g>
<!-- o140037847756736&#45;&gt;o140037847649776 -->
<g id="edge12" class="edge">
<title>o140037847756736&#45;&gt;o140037847649776</title>
<path fill="none" stroke="black" d="M520.18,-178.35C475.93,-173.35 398.57,-163 334,-146 304.87,-138.33 273.29,-126.91 247.7,-116.81"/>
<polygon fill="black" stroke="black" points="248.79,-113.48 238.21,-113.02 246.2,-119.98 248.79,-113.48"/>
<text text-anchor="middle" x="357.5" y="-134.8" font-family="Times,serif" font-size="14.00">__doc__</text>
</g>
<!-- o140037847171120 -->
<g id="node12" class="node">
<title>o140037847171120</title>
<polygon fill="#878787" stroke="black" points="384,-113 330,-113 330,-75 384,-75 384,-113"/>
<text text-anchor="middle" x="357" y="-97.8" font-family="Times,serif" font-size="14.00">str</text>
<text text-anchor="middle" x="357" y="-82.8" font-family="Times,serif" font-size="14.00">&#39;&#39;</text>
</g>
<!-- o140037847756736&#45;&gt;o140037847171120 -->
<g id="edge13" class="edge">
<title>o140037847756736&#45;&gt;o140037847171120</title>
<path fill="none" stroke="black" d="M520.38,-179.84C487.59,-176.48 438.65,-167.9 402,-146 391.6,-139.78 382.31,-130.36 374.91,-121.3"/>
<polygon fill="black" stroke="black" points="377.54,-118.97 368.67,-113.18 371.99,-123.24 377.54,-118.97"/>
<text text-anchor="middle" x="438" y="-134.8" font-family="Times,serif" font-size="14.00">__package__</text>
</g>
<!-- o94892714358576 -->
<g id="node13" class="node">
<title>o94892714358576</title>
<polygon fill="#878787" stroke="black" points="504,-113 402,-113 402,-75 504,-75 504,-113"/>
<text text-anchor="middle" x="453" y="-97.8" font-family="Times,serif" font-size="14.00">type</text>
<text text-anchor="middle" x="453" y="-82.8" font-family="Times,serif" font-size="14.00">BuiltinImporter</text>
</g>
<!-- o140037847756736&#45;&gt;o94892714358576 -->
<g id="edge14" class="edge">
<title>o140037847756736&#45;&gt;o94892714358576</title>
<path fill="none" stroke="black" d="M520.48,-165.86C510.37,-160.36 499.74,-153.64 491,-146 482.98,-138.99 475.6,-130.02 469.53,-121.56"/>
<polygon fill="black" stroke="black" points="472.23,-119.32 463.7,-113.04 466.46,-123.27 472.23,-119.32"/>
<text text-anchor="middle" x="521.5" y="-134.8" font-family="Times,serif" font-size="14.00">__loader__</text>
</g>
<!-- too_many_o140037847756736 -->
<g id="node14" class="node">
<title>too_many_o140037847756736</title>
<polygon fill="#870000" stroke="red" points="590,-103 522,-103 522,-85 590,-85 590,-103"/>
<text text-anchor="middle" x="556" y="-92.7" font-family="Times,serif" font-size="6.00" fill="white">154 more references</text>
</g>
<!-- o140037847756736&#45;&gt;too_many_o140037847756736 -->
<g id="edge15" class="edge">
<title>o140037847756736&#45;&gt;too_many_o140037847756736</title>
<path fill="none" stroke="red" stroke-dasharray="1,5" d="M556,-163.97C556,-149.06 556,-127.98 556,-113.06"/>
<polygon fill="red" stroke="red" points="559.5,-113.05 556,-103.05 552.5,-113.05 559.5,-113.05"/>
</g>
<!-- o140037847624944 -->
<g id="node15" class="node">
<title>o140037847624944</title>
<polygon fill="#878787" stroke="black" points="1057,-113 981,-113 981,-75 1057,-75 1057,-113"/>
<text text-anchor="middle" x="1019" y="-97.8" font-family="Times,serif" font-size="14.00">str</text>
<text text-anchor="middle" x="1019" y="-82.8" font-family="Times,serif" font-size="14.00">&#39;__main__&#39;</text>
</g>
<!-- o140037804072256&#45;&gt;o140037847624944 -->
<g id="edge16" class="edge">
<title>o140037804072256&#45;&gt;o140037847624944</title>
<path fill="none" stroke="black" d="M1427.46,-166.62C1424.3,-165.61 1421.12,-164.71 1418,-164 1302.47,-137.67 1267.72,-171.5 1152,-146 1122.66,-139.54 1091.22,-127.72 1066.27,-117.09"/>
<polygon fill="black" stroke="black" points="1067.62,-113.86 1057.05,-113.09 1064.83,-120.28 1067.62,-113.86"/>
<text text-anchor="middle" x="1181" y="-134.8" font-family="Times,serif" font-size="14.00">__name__</text>
</g>
<!-- o140037821794992 -->
<g id="node16" class="node">
<title>o140037821794992</title>
<polygon fill="#878787" stroke="black" points="1319,-113 1075,-113 1075,-75 1319,-75 1319,-113"/>
<text text-anchor="middle" x="1197" y="-97.8" font-family="Times,serif" font-size="14.00">str</text>
<text text-anchor="middle" x="1197" y="-82.8" font-family="Times,serif" font-size="14.00">&#39;Automatically created module for IPytho</text>
</g>
<!-- o140037804072256&#45;&gt;o140037821794992 -->
<g id="edge17" class="edge">
<title>o140037804072256&#45;&gt;o140037821794992</title>
<path fill="none" stroke="black" d="M1427.44,-166.71C1424.28,-165.68 1421.11,-164.75 1418,-164 1376.78,-154.02 1263.94,-168.51 1228,-146 1219.14,-140.45 1212.44,-131.35 1207.59,-122.36"/>
<polygon fill="black" stroke="black" points="1210.66,-120.68 1203.18,-113.18 1204.35,-123.71 1210.66,-120.68"/>
<text text-anchor="middle" x="1251.5" y="-134.8" font-family="Times,serif" font-size="14.00">__doc__</text>
</g>
<!-- o94892681361344 -->
<g id="node17" class="node">
<title>o94892681361344</title>
<polygon fill="#878787" stroke="black" points="1410.5,-113 1337.5,-113 1337.5,-75 1410.5,-75 1410.5,-113"/>
<text text-anchor="middle" x="1374" y="-97.8" font-family="Times,serif" font-size="14.00">NoneType</text>
<text text-anchor="middle" x="1374" y="-82.8" font-family="Times,serif" font-size="14.00">None</text>
</g>
<!-- o140037804072256&#45;&gt;o94892681361344 -->
<g id="edge18" class="edge">
<title>o140037804072256&#45;&gt;o94892681361344</title>
<path fill="none" stroke="black" d="M1427.41,-166.83C1424.26,-165.78 1421.09,-164.81 1418,-164 1388.51,-156.28 1302.09,-168.93 1282,-146 1277.61,-140.99 1278.24,-136.51 1282,-131 1282,-131 1304.96,-122.02 1327.94,-113.03"/>
<polygon fill="black" stroke="black" points="1329.34,-116.24 1337.37,-109.33 1326.79,-109.72 1329.34,-116.24"/>
<text text-anchor="middle" x="1318" y="-134.8" font-family="Times,serif" font-size="14.00">__package__</text>
</g>
<!-- o140037804072256&#45;&gt;o94892681361344 -->
<g id="edge19" class="edge">
<title>o140037804072256&#45;&gt;o94892681361344</title>
<path fill="none" stroke="black" d="M1427.23,-166.7C1408.97,-158.61 1389.97,-149.61 1387,-146 1381.69,-139.55 1378.51,-131.21 1376.63,-123.14"/>
<polygon fill="black" stroke="black" points="1380.06,-122.47 1374.86,-113.24 1373.17,-123.7 1380.06,-122.47"/>
<text text-anchor="middle" x="1423" y="-134.8" font-family="Times,serif" font-size="14.00">__package__</text>
</g>
<!-- too_many_o140037804072256 -->
<g id="node18" class="node">
<title>too_many_o140037804072256</title>
<polygon fill="#870000" stroke="red" points="1497,-103 1429,-103 1429,-85 1497,-85 1497,-103"/>
<text text-anchor="middle" x="1463" y="-92.7" font-family="Times,serif" font-size="6.00" fill="white">161 more references</text>
</g>
<!-- o140037804072256&#45;&gt;too_many_o140037804072256 -->
<g id="edge20" class="edge">
<title>o140037804072256&#45;&gt;too_many_o140037804072256</title>
<path fill="none" stroke="red" stroke-dasharray="1,5" d="M1463,-163.97C1463,-149.06 1463,-127.98 1463,-113.06"/>
<polygon fill="red" stroke="red" points="1466.5,-113.05 1463,-103.05 1459.5,-113.05 1466.5,-113.05"/>
</g>
<!-- o94892726782416&#45;&gt;o140037847756736 -->
<g id="edge23" class="edge">
<title>o94892726782416&#45;&gt;o140037847756736</title>
<path fill="none" stroke="black" d="M827.59,-252.93C753.97,-238.07 655.4,-217.42 601.51,-201.84"/>
<polygon fill="black" stroke="black" points="602.25,-198.41 591.67,-198.89 600.24,-205.11 602.25,-198.41"/>
</g>
<!-- o94892726782416&#45;&gt;o140037804072256 -->
<g id="edge24" class="edge">
<title>o94892726782416&#45;&gt;o140037804072256</title>
<path fill="none" stroke="black" d="M1023.66,-254.37C1026.81,-253.9 1029.93,-253.45 1033,-253 1200.65,-228.66 1249.23,-245.09 1417.72,-201.69"/>
<polygon fill="black" stroke="black" points="1418.62,-205.08 1427.41,-199.17 1416.85,-198.3 1418.62,-205.08"/>
<text text-anchor="middle" x="1360.5" y="-223.8" font-family="Times,serif" font-size="14.00">f_locals</text>
</g>
<!-- o94892726461504 -->
<g id="node19" class="node">
<title>o94892726461504</title>
<polygon fill="#4c4c4c" stroke="black" points="1409.5,-202 968.5,-202 968.5,-164 1409.5,-164 1409.5,-202"/>
<text text-anchor="middle" x="1189" y="-186.8" font-family="Times,serif" font-size="14.00" fill="white">frame</text>
<text text-anchor="middle" x="1189" y="-171.8" font-family="Times,serif" font-size="14.00" fill="white">/opt/conda/lib/python3.10/site&#45;packages/IPython/core/interactiveshell.py:3433</text>
</g>
<!-- o94892726782416&#45;&gt;o94892726461504 -->
<g id="edge21" class="edge">
<title>o94892726782416&#45;&gt;o94892726461504</title>
<path fill="none" stroke="black" d="M974.94,-252.97C1018.12,-239.06 1077.94,-219.79 1123.37,-205.15"/>
<polygon fill="black" stroke="black" points="1124.68,-208.4 1133.13,-202 1122.54,-201.74 1124.68,-208.4"/>
</g>
<!-- o140037498632160 -->
<g id="node20" class="node">
<title>o140037498632160</title>
<polygon fill="#4c4c4c" stroke="black" points="870,-202 610,-202 610,-164 870,-164 870,-202"/>
<text text-anchor="middle" x="740" y="-186.8" font-family="Times,serif" font-size="14.00" fill="white">code</text>
<text text-anchor="middle" x="740" y="-171.8" font-family="Times,serif" font-size="14.00" fill="white">&lt;code object &lt;module&gt; at 0x7f5d055c77e0,</text>
</g>
<!-- o94892726782416&#45;&gt;o140037498632160 -->
<g id="edge22" class="edge">
<title>o94892726782416&#45;&gt;o140037498632160</title>
<path fill="none" stroke="black" d="M881.91,-252.97C854.19,-239.5 816.11,-220.99 786.38,-206.54"/>
<polygon fill="black" stroke="black" points="787.57,-203.23 777.04,-202 784.51,-209.52 787.57,-203.23"/>
</g>
<!-- too_many_o94892726782416 -->
<g id="node21" class="node">
<title>too_many_o94892726782416</title>
<polygon fill="#4c0000" stroke="red" points="950,-192 888,-192 888,-174 950,-174 950,-192"/>
<text text-anchor="middle" x="919" y="-181.7" font-family="Times,serif" font-size="6.00" fill="white">1 more references</text>
</g>
<!-- o94892726782416&#45;&gt;too_many_o94892726782416 -->
<g id="edge25" class="edge">
<title>o94892726782416&#45;&gt;too_many_o94892726782416</title>
<path fill="none" stroke="red" stroke-dasharray="1,5" d="M919,-252.97C919,-238.06 919,-216.98 919,-202.06"/>
<polygon fill="red" stroke="red" points="922.5,-202.05 919,-192.05 915.5,-202.05 922.5,-202.05"/>
</g>
<!-- o140037847881984 -->
<g id="node22" class="node">
<title>o140037847881984</title>
<polygon fill="#4c4c4c" stroke="black" points="368,-38 304,-38 304,0 368,0 368,-38"/>
<text text-anchor="middle" x="336" y="-22.8" font-family="Times,serif" font-size="14.00" fill="white">dict</text>
<text text-anchor="middle" x="336" y="-7.8" font-family="Times,serif" font-size="14.00" fill="white">14 items</text>
</g>
<!-- o94892714358576&#45;&gt;o140037847881984 -->
<g id="edge26" class="edge">
<title>o94892714358576&#45;&gt;o140037847881984</title>
<path fill="none" stroke="black" d="M424.08,-74.96C408.89,-65.48 390.09,-53.75 373.77,-43.57"/>
<polygon fill="black" stroke="black" points="375.33,-40.41 364.99,-38.09 371.63,-46.35 375.33,-40.41"/>
</g>
<!-- o140037847880320 -->
<g id="node23" class="node">
<title>o140037847880320</title>
<polygon fill="#4c4c4c" stroke="black" points="443.5,-38 386.5,-38 386.5,0 443.5,0 443.5,-38"/>
<text text-anchor="middle" x="415" y="-22.8" font-family="Times,serif" font-size="14.00" fill="white">tuple</text>
<text text-anchor="middle" x="415" y="-7.8" font-family="Times,serif" font-size="14.00" fill="white">2 items</text>
</g>
<!-- o94892714358576&#45;&gt;o140037847880320 -->
<g id="edge27" class="edge">
<title>o94892714358576&#45;&gt;o140037847880320</title>
<path fill="none" stroke="black" d="M443.61,-74.96C439.22,-66.53 433.91,-56.33 429.06,-47.01"/>
<polygon fill="black" stroke="black" points="432.14,-45.34 424.42,-38.09 425.93,-48.58 432.14,-45.34"/>
</g>
<!-- o140037847168672 -->
<g id="node24" class="node">
<title>o140037847168672</title>
<polygon fill="#4c4c4c" stroke="black" points="518.5,-38 461.5,-38 461.5,0 518.5,0 518.5,-38"/>
<text text-anchor="middle" x="490" y="-22.8" font-family="Times,serif" font-size="14.00" fill="white">tuple</text>
<text text-anchor="middle" x="490" y="-7.8" font-family="Times,serif" font-size="14.00" fill="white">1 items</text>
</g>
<!-- o94892714358576&#45;&gt;o140037847168672 -->
<g id="edge28" class="edge">
<title>o94892714358576&#45;&gt;o140037847168672</title>
<path fill="none" stroke="black" d="M462.15,-74.96C466.42,-66.53 471.59,-56.33 476.31,-47.01"/>
<polygon fill="black" stroke="black" points="479.43,-48.59 480.83,-38.09 473.19,-45.43 479.43,-48.59"/>
</g>
<!-- o94892681349280 -->
<g id="node25" class="node">
<title>o94892681349280</title>
<polygon fill="#4c4c4c" stroke="black" points="591,-38 537,-38 537,0 591,0 591,-38"/>
<text text-anchor="middle" x="564" y="-22.8" font-family="Times,serif" font-size="14.00" fill="white">type</text>
<text text-anchor="middle" x="564" y="-7.8" font-family="Times,serif" font-size="14.00" fill="white">object</text>
</g>
<!-- o94892714358576&#45;&gt;o94892681349280 -->
<g id="edge29" class="edge">
<title>o94892714358576&#45;&gt;o94892681349280</title>
<path fill="none" stroke="black" d="M480.44,-74.96C494.96,-65.41 512.95,-53.57 528.52,-43.34"/>
<polygon fill="black" stroke="black" points="530.45,-46.26 536.88,-37.84 526.6,-40.41 530.45,-46.26"/>
</g>
</g>
</svg>
