<?xml version="1.0" encoding="UTF-8" standalone="no"?>
<!DOCTYPE svg PUBLIC "-//W3C//DTD SVG 1.1//EN"
 "http://www.w3.org/Graphics/SVG/1.1/DTD/svg11.dtd">
<!-- Generated by graphviz version 2.43.0 (0)
 -->
<!-- Title: ObjectGraph Pages: 1 -->
<svg width="2873pt" height="320pt"
 viewBox="0.00 0.00 2873.00 319.91" xmlns="http://www.w3.org/2000/svg" xmlns:xlink="http://www.w3.org/1999/xlink">
<g id="graph0" class="graph" transform="scale(1 1) rotate(0) translate(4 315.91)">
<title>ObjectGraph</title>
<polygon fill="white" stroke="transparent" points="-4,4 -4,-315.91 2869,-315.91 2869,4 -4,4"/>
<!-- o140037496223136 -->
<g id="node1" class="node">
<title>o140037496223136</title>
<polygon fill="#ffffff" stroke="black" points="2531,-311.91 2281,-311.91 2281,-273.91 2531,-273.91 2531,-311.91"/>
<text text-anchor="middle" x="2406" y="-296.71" font-family="Times,serif" font-size="14.00" fill="red">generator</text>
<text text-anchor="middle" x="2406" y="-281.71" font-family="Times,serif" font-size="14.00" fill="red">&lt;generator object gen_foo at 0x7f5d0537b</text>
</g>
<!-- o140037496223136_has_a_del -->
<g id="node2" class="node">
<title>o140037496223136_has_a_del</title>
<ellipse fill="#ff7f7f" stroke="red" cx="2406" cy="-207.46" rx="25.42" ry="25.42"/>
<ellipse fill="none" stroke="red" cx="2406" cy="-207.46" rx="29.41" ry="29.41"/>
<text text-anchor="middle" x="2406" y="-206.16" font-family="Times,serif" font-size="6.00">__del__</text>
</g>
<!-- o140037496223136&#45;&gt;o140037496223136_has_a_del -->
<g id="edge1" class="edge">
<title>o140037496223136&#45;&gt;o140037496223136_has_a_del</title>
<path fill="none" stroke="red" stroke-dasharray="1,5" d="M2406,-273.8C2406,-266 2406,-256.56 2406,-247.3"/>
<polygon fill="red" stroke="red" points="2409.5,-247.03 2406,-237.03 2402.5,-247.03 2409.5,-247.03"/>
</g>
<!-- o140037493354752 -->
<g id="node3" class="node">
<title>o140037493354752</title>
<polygon fill="#c3c3c3" stroke="black" points="2669,-226.46 2453,-226.46 2453,-188.46 2669,-188.46 2669,-226.46"/>
<text text-anchor="middle" x="2561" y="-211.26" font-family="Times,serif" font-size="14.00">frame</text>
<text text-anchor="middle" x="2561" y="-196.26" font-family="Times,serif" font-size="14.00">/tmp/ipykernel_84/1501290856.py:3</text>
</g>
<!-- o140037496223136&#45;&gt;o140037493354752 -->
<g id="edge2" class="edge">
<title>o140037496223136&#45;&gt;o140037493354752</title>
<path fill="none" stroke="black" d="M2439.63,-273.8C2462.79,-261.34 2493.73,-244.67 2518.58,-231.3"/>
<polygon fill="black" stroke="black" points="2520.29,-234.35 2527.43,-226.53 2516.97,-228.19 2520.29,-234.35"/>
</g>
<!-- o140037496606544 -->
<g id="node4" class="node">
<title>o140037496606544</title>
<polygon fill="#c3c3c3" stroke="black" points="2865,-127 2615,-127 2615,-89 2865,-89 2865,-127"/>
<text text-anchor="middle" x="2740" y="-111.8" font-family="Times,serif" font-size="14.00">code</text>
<text text-anchor="middle" x="2740" y="-96.8" font-family="Times,serif" font-size="14.00">&lt;code object gen_foo at 0x7f5d053d8f50, </text>
</g>
<!-- o140037496223136&#45;&gt;o140037496606544 -->
<g id="edge3" class="edge">
<title>o140037496223136&#45;&gt;o140037496606544</title>
<path fill="none" stroke="black" d="M2531,-277.5C2590.88,-268.47 2654.58,-255.07 2678,-236.91 2694.79,-223.89 2717.04,-170.52 2729.81,-136.97"/>
<polygon fill="black" stroke="black" points="2733.22,-137.85 2733.46,-127.26 2726.67,-135.39 2733.22,-137.85"/>
</g>
<!-- o140037492902128 -->
<g id="node5" class="node">
<title>o140037492902128</title>
<polygon fill="#c3c3c3" stroke="black" points="2790.5,-226.46 2725.5,-226.46 2725.5,-188.46 2790.5,-188.46 2790.5,-226.46"/>
<text text-anchor="middle" x="2758" y="-211.26" font-family="Times,serif" font-size="14.00">str</text>
<text text-anchor="middle" x="2758" y="-196.26" font-family="Times,serif" font-size="14.00">&#39;gen_foo&#39;</text>
</g>
<!-- o140037496223136&#45;&gt;o140037492902128 -->
<g id="edge4" class="edge">
<title>o140037496223136&#45;&gt;o140037492902128</title>
<path fill="none" stroke="black" d="M2531.19,-284.85C2597.75,-279.55 2671.87,-270.61 2702,-255.91 2712.37,-250.85 2721.78,-242.55 2729.94,-234.3"/>
<polygon fill="black" stroke="black" points="2732.7,-236.48 2737.08,-226.82 2727.64,-231.64 2732.7,-236.48"/>
</g>
<!-- o140037496223136&#45;&gt;o140037492902128 -->
<g id="edge5" class="edge">
<title>o140037496223136&#45;&gt;o140037492902128</title>
<path fill="none" stroke="black" d="M2531.2,-286.02C2603.99,-280.91 2687.53,-271.75 2720,-255.91 2730.16,-250.95 2739.4,-242.89 2746.45,-234.8"/>
<polygon fill="black" stroke="black" points="2749.29,-236.85 2752.72,-226.82 2743.79,-232.52 2749.29,-236.85"/>
</g>
<!-- o140037493354752&#45;&gt;o140037496606544 -->
<g id="edge6" class="edge">
<title>o140037493354752&#45;&gt;o140037496606544</title>
<path fill="none" stroke="black" d="M2594.25,-188.35C2623.51,-172.42 2666.27,-149.14 2697.91,-131.92"/>
<polygon fill="black" stroke="black" points="2699.82,-134.86 2706.93,-127.01 2696.47,-128.71 2699.82,-134.86"/>
</g>
<!-- o140037847756736 -->
<g id="node6" class="node">
<title>o140037847756736</title>
<polygon fill="#878787" stroke="black" points="1288.5,-127 1217.5,-127 1217.5,-89 1288.5,-89 1288.5,-127"/>
<text text-anchor="middle" x="1253" y="-111.8" font-family="Times,serif" font-size="14.00">dict</text>
<text text-anchor="middle" x="1253" y="-96.8" font-family="Times,serif" font-size="14.00">158 items</text>
</g>
<!-- o140037493354752&#45;&gt;o140037847756736 -->
<g id="edge7" class="edge">
<title>o140037493354752&#45;&gt;o140037847756736</title>
<path fill="none" stroke="black" d="M2495.82,-188.4C2479.05,-184.36 2460.95,-180.53 2444,-178 2001.96,-111.99 1458.89,-108.24 1299.2,-108.69"/>
<polygon fill="black" stroke="black" points="1298.79,-105.19 1288.8,-108.72 1298.82,-112.19 1298.79,-105.19"/>
</g>
<!-- o140037804072256 -->
<g id="node7" class="node">
<title>o140037804072256</title>
<polygon fill="#878787" stroke="black" points="2596.5,-127 2525.5,-127 2525.5,-89 2596.5,-89 2596.5,-127"/>
<text text-anchor="middle" x="2561" y="-111.8" font-family="Times,serif" font-size="14.00">dict</text>
<text text-anchor="middle" x="2561" y="-96.8" font-family="Times,serif" font-size="14.00">121 items</text>
</g>
<!-- o140037493354752&#45;&gt;o140037804072256 -->
<g id="edge8" class="edge">
<title>o140037493354752&#45;&gt;o140037804072256</title>
<path fill="none" stroke="black" d="M2561,-188.13C2561,-173.83 2561,-153.73 2561,-137.36"/>
<polygon fill="black" stroke="black" points="2564.5,-137.25 2561,-127.25 2557.5,-137.25 2564.5,-137.25"/>
<text text-anchor="middle" x="2586.5" y="-148.8" font-family="Times,serif" font-size="14.00">f_globals</text>
</g>
<!-- o140037847756656 -->
<g id="node8" class="node">
<title>o140037847756656</title>
<polygon fill="#4c4c4c" stroke="black" points="62,-38 0,-38 0,0 62,0 62,-38"/>
<text text-anchor="middle" x="31" y="-22.8" font-family="Times,serif" font-size="14.00" fill="white">str</text>
<text text-anchor="middle" x="31" y="-7.8" font-family="Times,serif" font-size="14.00" fill="white">&#39;builtins&#39;</text>
</g>
<!-- o140037847756736&#45;&gt;o140037847756656 -->
<g id="edge9" class="edge">
<title>o140037847756736&#45;&gt;o140037847756656</title>
<path fill="none" stroke="black" d="M1217.44,-107.4C1088.83,-108.47 635.94,-109.14 265,-71 181.14,-62.38 156.43,-63.39 71.92,-37.9"/>
<polygon fill="black" stroke="black" points="72.74,-34.5 62.15,-34.92 70.69,-41.19 72.74,-34.5"/>
<text text-anchor="middle" x="294" y="-59.8" font-family="Times,serif" font-size="14.00">__name__</text>
</g>
<!-- o140037847649776 -->
<g id="node9" class="node">
<title>o140037847649776</title>
<polygon fill="#4c4c4c" stroke="black" points="312,-38 80,-38 80,0 312,0 312,-38"/>
<text text-anchor="middle" x="196" y="-22.8" font-family="Times,serif" font-size="14.00" fill="white">str</text>
<text text-anchor="middle" x="196" y="-7.8" font-family="Times,serif" font-size="14.00" fill="white">&quot;Built&#45;in functions, exceptions, and oth</text>
</g>
<!-- o140037847756736&#45;&gt;o140037847649776 -->
<g id="edge10" class="edge">
<title>o140037847756736&#45;&gt;o140037847649776</title>
<path fill="none" stroke="black" d="M1217.24,-106.45C1076.73,-104.14 562.37,-94.24 401,-71 354.99,-64.37 304.28,-51.81 264.81,-40.8"/>
<polygon fill="black" stroke="black" points="265.6,-37.39 255.03,-38.05 263.7,-44.13 265.6,-37.39"/>
<text text-anchor="middle" x="424.5" y="-59.8" font-family="Times,serif" font-size="14.00">__doc__</text>
</g>
<!-- o140037847171120 -->
<g id="node10" class="node">
<title>o140037847171120</title>
<polygon fill="#4c4c4c" stroke="black" points="384,-38 330,-38 330,0 384,0 384,-38"/>
<text text-anchor="middle" x="357" y="-22.8" font-family="Times,serif" font-size="14.00" fill="white">str</text>
<text text-anchor="middle" x="357" y="-7.8" font-family="Times,serif" font-size="14.00" fill="white">&#39;&#39;</text>
</g>
<!-- o140037847756736&#45;&gt;o140037847171120 -->
<g id="edge11" class="edge">
<title>o140037847756736&#45;&gt;o140037847171120</title>
<path fill="none" stroke="black" d="M1217.41,-107.4C1112.6,-108.13 796.2,-106.93 537,-71 475.01,-62.41 456.52,-60.36 393.8,-37.91"/>
<polygon fill="black" stroke="black" points="394.82,-34.56 384.22,-34.45 392.44,-41.14 394.82,-34.56"/>
<text text-anchor="middle" x="573" y="-59.8" font-family="Times,serif" font-size="14.00">__package__</text>
</g>
<!-- o94892714358576 -->
<g id="node11" class="node">
<title>o94892714358576</title>
<polygon fill="#4c4c4c" stroke="black" points="504,-38 402,-38 402,0 504,0 504,-38"/>
<text text-anchor="middle" x="453" y="-22.8" font-family="Times,serif" font-size="14.00" fill="white">type</text>
<text text-anchor="middle" x="453" y="-7.8" font-family="Times,serif" font-size="14.00" fill="white">BuiltinImporter</text>
</g>
<!-- o140037847756736&#45;&gt;o94892714358576 -->
<g id="edge12" class="edge">
<title>o140037847756736&#45;&gt;o94892714358576</title>
<path fill="none" stroke="black" d="M1217.15,-106.49C1110.74,-104.37 787.58,-93.64 514.34,-38.09"/>
<polygon fill="black" stroke="black" points="514.74,-34.6 504.24,-36.01 513.33,-41.45 514.74,-34.6"/>
<text text-anchor="middle" x="745.5" y="-59.8" font-family="Times,serif" font-size="14.00">__loader__</text>
</g>
<!-- o140037847164112 -->
<g id="node12" class="node">
<title>o140037847164112</title>
<polygon fill="#4c4c4c" stroke="black" points="774,-38 522,-38 522,0 774,0 774,-38"/>
<text text-anchor="middle" x="648" y="-22.8" font-family="Times,serif" font-size="14.00" fill="white">ModuleSpec</text>
<text text-anchor="middle" x="648" y="-7.8" font-family="Times,serif" font-size="14.00" fill="white">ModuleSpec(name=&#39;builtins&#39;, loader=&lt;clas</text>
</g>
<!-- o140037847756736&#45;&gt;o140037847164112 -->
<g id="edge13" class="edge">
<title>o140037847756736&#45;&gt;o140037847164112</title>
<path fill="none" stroke="black" d="M1217.47,-103.45C1160.2,-97.59 1044,-85.12 946,-71 882.66,-61.87 812.05,-49.87 755.47,-39.8"/>
<polygon fill="black" stroke="black" points="755.9,-36.32 745.44,-38.01 754.66,-43.21 755.9,-36.32"/>
<text text-anchor="middle" x="972" y="-59.8" font-family="Times,serif" font-size="14.00">__spec__</text>
</g>
<!-- o140037847763280 -->
<g id="node13" class="node">
<title>o140037847763280</title>
<polygon fill="#4c4c4c" stroke="black" points="962,-38 792,-38 792,0 962,0 962,-38"/>
<text text-anchor="middle" x="877" y="-22.8" font-family="Times,serif" font-size="14.00" fill="white">builtin_function_or_method</text>
<text text-anchor="middle" x="877" y="-7.8" font-family="Times,serif" font-size="14.00" fill="white">__build_class__</text>
</g>
<!-- o140037847756736&#45;&gt;o140037847763280 -->
<g id="edge14" class="edge">
<title>o140037847756736&#45;&gt;o140037847763280</title>
<path fill="none" stroke="black" d="M1217.2,-101.53C1177.56,-95.22 1111.87,-84.03 1056,-71 1018.91,-62.35 978.03,-50.85 944.71,-40.97"/>
<polygon fill="black" stroke="black" points="945.66,-37.6 935.08,-38.09 943.66,-44.3 945.66,-37.6"/>
<text text-anchor="middle" x="1100" y="-59.8" font-family="Times,serif" font-size="14.00">__build_class__</text>
</g>
<!-- o140037847763360 -->
<g id="node14" class="node">
<title>o140037847763360</title>
<polygon fill="#4c4c4c" stroke="black" points="1150,-38 980,-38 980,0 1150,0 1150,-38"/>
<text text-anchor="middle" x="1065" y="-22.8" font-family="Times,serif" font-size="14.00" fill="white">builtin_function_or_method</text>
<text text-anchor="middle" x="1065" y="-7.8" font-family="Times,serif" font-size="14.00" fill="white">__import__</text>
</g>
<!-- o140037847756736&#45;&gt;o140037847763360 -->
<g id="edge15" class="edge">
<title>o140037847756736&#45;&gt;o140037847763360</title>
<path fill="none" stroke="black" d="M1217.2,-90.43C1187.72,-76.79 1145.65,-57.32 1113.21,-42.31"/>
<polygon fill="black" stroke="black" points="1114.46,-39.03 1103.91,-38.01 1111.52,-45.38 1114.46,-39.03"/>
<text text-anchor="middle" x="1203" y="-59.8" font-family="Times,serif" font-size="14.00">__import__</text>
</g>
<!-- o140037847763440 -->
<g id="node15" class="node">
<title>o140037847763440</title>
<polygon fill="#4c4c4c" stroke="black" points="1338,-38 1168,-38 1168,0 1338,0 1338,-38"/>
<text text-anchor="middle" x="1253" y="-22.8" font-family="Times,serif" font-size="14.00" fill="white">builtin_function_or_method</text>
<text text-anchor="middle" x="1253" y="-7.8" font-family="Times,serif" font-size="14.00" fill="white">abs</text>
</g>
<!-- o140037847756736&#45;&gt;o140037847763440 -->
<g id="edge16" class="edge">
<title>o140037847756736&#45;&gt;o140037847763440</title>
<path fill="none" stroke="black" d="M1253,-88.97C1253,-77.19 1253,-61.56 1253,-48.16"/>
<polygon fill="black" stroke="black" points="1256.5,-48 1253,-38 1249.5,-48 1256.5,-48"/>
<text text-anchor="middle" x="1262.5" y="-59.8" font-family="Times,serif" font-size="14.00">abs</text>
</g>
<!-- o140037847763520 -->
<g id="node16" class="node">
<title>o140037847763520</title>
<polygon fill="#4c4c4c" stroke="black" points="1526,-38 1356,-38 1356,0 1526,0 1526,-38"/>
<text text-anchor="middle" x="1441" y="-22.8" font-family="Times,serif" font-size="14.00" fill="white">builtin_function_or_method</text>
<text text-anchor="middle" x="1441" y="-7.8" font-family="Times,serif" font-size="14.00" fill="white">all</text>
</g>
<!-- o140037847756736&#45;&gt;o140037847763520 -->
<g id="edge17" class="edge">
<title>o140037847756736&#45;&gt;o140037847763520</title>
<path fill="none" stroke="black" d="M1288.8,-90.43C1318.28,-76.79 1360.35,-57.32 1392.79,-42.31"/>
<polygon fill="black" stroke="black" points="1394.48,-45.38 1402.09,-38.01 1391.54,-39.03 1394.48,-45.38"/>
<text text-anchor="middle" x="1366" y="-59.8" font-family="Times,serif" font-size="14.00">all</text>
</g>
<!-- o140037847763600 -->
<g id="node17" class="node">
<title>o140037847763600</title>
<polygon fill="#4c4c4c" stroke="black" points="1714,-38 1544,-38 1544,0 1714,0 1714,-38"/>
<text text-anchor="middle" x="1629" y="-22.8" font-family="Times,serif" font-size="14.00" fill="white">builtin_function_or_method</text>
<text text-anchor="middle" x="1629" y="-7.8" font-family="Times,serif" font-size="14.00" fill="white">any</text>
</g>
<!-- o140037847756736&#45;&gt;o140037847763600 -->
<g id="edge18" class="edge">
<title>o140037847756736&#45;&gt;o140037847763600</title>
<path fill="none" stroke="black" d="M1288.71,-98.74C1346.11,-85.46 1460.57,-58.97 1540.83,-40.4"/>
<polygon fill="black" stroke="black" points="1541.98,-43.73 1550.93,-38.06 1540.4,-36.91 1541.98,-43.73"/>
<text text-anchor="middle" x="1474" y="-59.8" font-family="Times,serif" font-size="14.00">any</text>
</g>
<!-- too_many_o140037847756736 -->
<g id="node18" class="node">
<title>too_many_o140037847756736</title>
<polygon fill="#4c0000" stroke="red" points="1800,-28 1732,-28 1732,-10 1800,-10 1800,-28"/>
<text text-anchor="middle" x="1766" y="-17.7" font-family="Times,serif" font-size="6.00" fill="white">148 more references</text>
</g>
<!-- o140037847756736&#45;&gt;too_many_o140037847756736 -->
<g id="edge19" class="edge">
<title>o140037847756736&#45;&gt;too_many_o140037847756736</title>
<path fill="none" stroke="red" stroke-dasharray="1,5" d="M1288.71,-104.82C1368.09,-99.31 1564.68,-82.01 1723,-38 1728.65,-36.43 1734.55,-34.3 1740.11,-32.06"/>
<polygon fill="red" stroke="red" points="1741.78,-35.16 1749.6,-28.01 1739.03,-28.72 1741.78,-35.16"/>
</g>
<!-- o140037847624944 -->
<g id="node19" class="node">
<title>o140037847624944</title>
<polygon fill="#4c4c4c" stroke="black" points="1894,-38 1818,-38 1818,0 1894,0 1894,-38"/>
<text text-anchor="middle" x="1856" y="-22.8" font-family="Times,serif" font-size="14.00" fill="white">str</text>
<text text-anchor="middle" x="1856" y="-7.8" font-family="Times,serif" font-size="14.00" fill="white">&#39;__main__&#39;</text>
</g>
<!-- o140037804072256&#45;&gt;o140037847624944 -->
<g id="edge20" class="edge">
<title>o140037804072256&#45;&gt;o140037847624944</title>
<path fill="none" stroke="black" d="M2525.37,-106.34C2415.63,-104.05 2083.79,-95.25 1979,-71 1951.78,-64.7 1922.85,-52.98 1899.89,-42.37"/>
<polygon fill="black" stroke="black" points="1901.3,-39.16 1890.76,-38.06 1898.31,-45.49 1901.3,-39.16"/>
<text text-anchor="middle" x="2008" y="-59.8" font-family="Times,serif" font-size="14.00">__name__</text>
</g>
<!-- o140037821794992 -->
<g id="node20" class="node">
<title>o140037821794992</title>
<polygon fill="#4c4c4c" stroke="black" points="2156,-38 1912,-38 1912,0 2156,0 2156,-38"/>
<text text-anchor="middle" x="2034" y="-22.8" font-family="Times,serif" font-size="14.00" fill="white">str</text>
<text text-anchor="middle" x="2034" y="-7.8" font-family="Times,serif" font-size="14.00" fill="white">&#39;Automatically created module for IPytho</text>
</g>
<!-- o140037804072256&#45;&gt;o140037821794992 -->
<g id="edge21" class="edge">
<title>o140037804072256&#45;&gt;o140037821794992</title>
<path fill="none" stroke="black" d="M2525.44,-106.74C2415.84,-105.64 2088.3,-99.94 2051,-71 2043.84,-65.45 2039.67,-56.78 2037.25,-48.15"/>
<polygon fill="black" stroke="black" points="2040.64,-47.28 2035.13,-38.23 2033.79,-48.74 2040.64,-47.28"/>
<text text-anchor="middle" x="2074.5" y="-59.8" font-family="Times,serif" font-size="14.00">__doc__</text>
</g>
<!-- o94892681361344 -->
<g id="node21" class="node">
<title>o94892681361344</title>
<polygon fill="#4c4c4c" stroke="black" points="2247.5,-38 2174.5,-38 2174.5,0 2247.5,0 2247.5,-38"/>
<text text-anchor="middle" x="2211" y="-22.8" font-family="Times,serif" font-size="14.00" fill="white">NoneType</text>
<text text-anchor="middle" x="2211" y="-7.8" font-family="Times,serif" font-size="14.00" fill="white">None</text>
</g>
<!-- o140037804072256&#45;&gt;o94892681361344 -->
<g id="edge22" class="edge">
<title>o140037804072256&#45;&gt;o94892681361344</title>
<path fill="none" stroke="black" d="M2525.23,-106.9C2422.71,-106.24 2133.33,-101.66 2105,-71 2100.48,-66.1 2101.02,-61.35 2105,-56 2121.62,-33.66 2138.68,-47.08 2165,-38 2165.1,-37.97 2165.19,-37.93 2165.29,-37.9"/>
<polygon fill="black" stroke="black" points="2166.21,-41.29 2174.44,-34.62 2163.85,-34.7 2166.21,-41.29"/>
<text text-anchor="middle" x="2141" y="-59.8" font-family="Times,serif" font-size="14.00">__package__</text>
</g>
<!-- o140037804072256&#45;&gt;o94892681361344 -->
<g id="edge23" class="edge">
<title>o140037804072256&#45;&gt;o94892681361344</title>
<path fill="none" stroke="black" d="M2525.35,-106.1C2438.53,-103.56 2221.58,-94.84 2200,-71 2194.23,-64.63 2194.25,-55.98 2196.56,-47.61"/>
<polygon fill="black" stroke="black" points="2199.9,-48.66 2200.11,-38.07 2193.34,-46.22 2199.9,-48.66"/>
<text text-anchor="middle" x="2236" y="-59.8" font-family="Times,serif" font-size="14.00">__package__</text>
</g>
<!-- o140037804072256&#45;&gt;o94892681361344 -->
<g id="edge24" class="edge">
<title>o140037804072256&#45;&gt;o94892681361344</title>
<path fill="none" stroke="black" d="M2525.25,-105.6C2475.8,-102.84 2384.23,-94.7 2310,-71 2288.83,-64.24 2266.71,-53.27 2248.76,-43.23"/>
<polygon fill="black" stroke="black" points="2250.2,-40.02 2239.78,-38.09 2246.72,-46.09 2250.2,-40.02"/>
<text text-anchor="middle" x="2346" y="-59.8" font-family="Times,serif" font-size="14.00">__package__</text>
</g>
<!-- o140037847763200 -->
<g id="node22" class="node">
<title>o140037847763200</title>
<polygon fill="#0f4c00" stroke="black" points="2427,-38 2369,-38 2369,0 2427,0 2427,-38"/>
<text text-anchor="middle" x="2398" y="-22.8" font-family="Times,serif" font-size="14.00" fill="white">module</text>
<text text-anchor="middle" x="2398" y="-7.8" font-family="Times,serif" font-size="14.00" fill="white">builtins</text>
</g>
<!-- o140037804072256&#45;&gt;o140037847763200 -->
<g id="edge25" class="edge">
<title>o140037804072256&#45;&gt;o140037847763200</title>
<path fill="none" stroke="black" d="M2525.5,-104.66C2480.49,-100.87 2406.73,-91.61 2390,-71 2384.78,-64.57 2384.37,-56.13 2385.98,-47.98"/>
<polygon fill="black" stroke="black" points="2389.36,-48.91 2388.76,-38.33 2382.63,-46.97 2389.36,-48.91"/>
<text text-anchor="middle" x="2421.5" y="-59.8" font-family="Times,serif" font-size="14.00">__builtin__</text>
</g>
<!-- o140037804072256&#45;&gt;o140037847763200 -->
<g id="edge26" class="edge">
<title>o140037804072256&#45;&gt;o140037847763200</title>
<path fill="none" stroke="black" d="M2525.26,-95.19C2508.56,-89.02 2488.72,-80.71 2472,-71 2462.7,-65.6 2461.73,-62.29 2453,-56 2447.34,-51.92 2441.24,-47.74 2435.24,-43.74"/>
<polygon fill="black" stroke="black" points="2436.86,-40.61 2426.59,-38.03 2433.01,-46.45 2436.86,-40.61"/>
<text text-anchor="middle" x="2503.5" y="-59.8" font-family="Times,serif" font-size="14.00">__builtin__</text>
</g>
<!-- o140037798219072 -->
<g id="node23" class="node">
<title>o140037798219072</title>
<polygon fill="#4c4c4c" stroke="black" points="2517,-38 2453,-38 2453,0 2517,0 2517,-38"/>
<text text-anchor="middle" x="2485" y="-22.8" font-family="Times,serif" font-size="14.00" fill="white">list</text>
<text text-anchor="middle" x="2485" y="-7.8" font-family="Times,serif" font-size="14.00" fill="white">53 items</text>
</g>
<!-- o140037804072256&#45;&gt;o140037798219072 -->
<g id="edge27" class="edge">
<title>o140037804072256&#45;&gt;o140037798219072</title>
<path fill="none" stroke="black" d="M2555.93,-88.61C2552.4,-78.23 2546.9,-65.48 2539,-56 2535.12,-51.34 2530.48,-47.05 2525.58,-43.18"/>
<polygon fill="black" stroke="black" points="2527.31,-40.12 2517.17,-37.07 2523.2,-45.78 2527.31,-40.12"/>
<text text-anchor="middle" x="2558" y="-59.8" font-family="Times,serif" font-size="14.00">_ih</text>
</g>
<!-- o140037798218560 -->
<g id="node24" class="node">
<title>o140037798218560</title>
<polygon fill="#4c4c4c" stroke="black" points="2599,-38 2535,-38 2535,0 2599,0 2599,-38"/>
<text text-anchor="middle" x="2567" y="-22.8" font-family="Times,serif" font-size="14.00" fill="white">dict</text>
<text text-anchor="middle" x="2567" y="-7.8" font-family="Times,serif" font-size="14.00" fill="white">34 items</text>
</g>
<!-- o140037804072256&#45;&gt;o140037798218560 -->
<g id="edge28" class="edge">
<title>o140037804072256&#45;&gt;o140037798218560</title>
<path fill="none" stroke="black" d="M2572.88,-88.64C2575.79,-83.18 2578.5,-77.04 2580,-71 2581.84,-63.56 2581.08,-55.52 2579.23,-48.07"/>
<polygon fill="black" stroke="black" points="2582.52,-46.87 2576.16,-38.4 2575.84,-48.99 2582.52,-46.87"/>
<text text-anchor="middle" x="2592.5" y="-59.8" font-family="Times,serif" font-size="14.00">_oh</text>
</g>
<!-- o140037798218816 -->
<g id="node25" class="node">
<title>o140037798218816</title>
<polygon fill="#4c4c4c" stroke="black" points="2674.5,-38 2617.5,-38 2617.5,0 2674.5,0 2674.5,-38"/>
<text text-anchor="middle" x="2646" y="-22.8" font-family="Times,serif" font-size="14.00" fill="white">list</text>
<text text-anchor="middle" x="2646" y="-7.8" font-family="Times,serif" font-size="14.00" fill="white">1 items</text>
</g>
<!-- o140037804072256&#45;&gt;o140037798218816 -->
<g id="edge29" class="edge">
<title>o140037804072256&#45;&gt;o140037798218816</title>
<path fill="none" stroke="black" d="M2586.8,-88.66C2593.66,-83.3 2600.87,-77.2 2607,-71 2614.33,-63.59 2621.51,-54.79 2627.67,-46.6"/>
<polygon fill="black" stroke="black" points="2630.61,-48.51 2633.68,-38.37 2624.96,-44.38 2630.61,-48.51"/>
<text text-anchor="middle" x="2630.5" y="-59.8" font-family="Times,serif" font-size="14.00">_dh</text>
</g>
<!-- too_many_o140037804072256 -->
<g id="node26" class="node">
<title>too_many_o140037804072256</title>
<polygon fill="#4c0000" stroke="red" points="2761,-28 2693,-28 2693,-10 2761,-10 2761,-28"/>
<text text-anchor="middle" x="2727" y="-17.7" font-family="Times,serif" font-size="6.00" fill="white">111 more references</text>
</g>
<!-- o140037804072256&#45;&gt;too_many_o140037804072256 -->
<g id="edge30" class="edge">
<title>o140037804072256&#45;&gt;too_many_o140037804072256</title>
<path fill="none" stroke="red" stroke-dasharray="1,5" d="M2596.69,-92.34C2615.32,-84.55 2636.07,-75.66 2645,-71 2666.75,-59.66 2690.42,-44.63 2706.71,-33.82"/>
<polygon fill="red" stroke="red" points="2709.02,-36.49 2715.38,-28.01 2705.12,-30.67 2709.02,-36.49"/>
</g>
</g>
</svg>
