<?xml version="1.0" encoding="UTF-8" standalone="no"?>
<!DOCTYPE svg PUBLIC "-//W3C//DTD SVG 1.1//EN"
 "http://www.w3.org/Graphics/SVG/1.1/DTD/svg11.dtd">
<!-- Generated by graphviz version 2.43.0 (0)
 -->
<!-- Title: ObjectGraph Pages: 1 -->
<svg width="1863pt" height="463pt"
 viewBox="0.00 0.00 1863.00 463.00" xmlns="http://www.w3.org/2000/svg" xmlns:xlink="http://www.w3.org/1999/xlink">
<g id="graph0" class="graph" transform="scale(1 1) rotate(0) translate(4 459)">
<title>ObjectGraph</title>
<polygon fill="white" stroke="transparent" points="-4,4 -4,-459 1859,-459 1859,4 -4,4"/>
<!-- o140037798498240 -->
<g id="node1" class="node">
<title>o140037798498240</title>
<polygon fill="#ffffff" stroke="black" points="1595.5,-455 1386.5,-455 1386.5,-417 1595.5,-417 1595.5,-455"/>
<text text-anchor="middle" x="1491" y="-439.8" font-family="Times,serif" font-size="14.00" fill="red">frame</text>
<text text-anchor="middle" x="1491" y="-424.8" font-family="Times,serif" font-size="14.00" fill="red">/tmp/ipykernel_84/167722926.py:4</text>
</g>
<!-- o140037498235504 -->
<g id="node2" class="node">
<title>o140037498235504</title>
<polygon fill="#c3c3c3" stroke="black" points="1446.5,-380 1243.5,-380 1243.5,-342 1446.5,-342 1446.5,-380"/>
<text text-anchor="middle" x="1345" y="-364.8" font-family="Times,serif" font-size="14.00">frame</text>
<text text-anchor="middle" x="1345" y="-349.8" font-family="Times,serif" font-size="14.00">/tmp/ipykernel_84/35968818.py:7</text>
</g>
<!-- o140037798498240&#45;&gt;o140037498235504 -->
<g id="edge1" class="edge">
<title>o140037798498240&#45;&gt;o140037498235504</title>
<path fill="none" stroke="black" d="M1454.91,-416.96C1435.34,-407.17 1410.98,-394.99 1390.16,-384.58"/>
<polygon fill="black" stroke="black" points="1391.69,-381.43 1381.18,-380.09 1388.56,-387.69 1391.69,-381.43"/>
</g>
<!-- o140037498631808 -->
<g id="node3" class="node">
<title>o140037498631808</title>
<polygon fill="#c3c3c3" stroke="black" points="1775,-380 1519,-380 1519,-342 1775,-342 1775,-380"/>
<text text-anchor="middle" x="1647" y="-364.8" font-family="Times,serif" font-size="14.00">code</text>
<text text-anchor="middle" x="1647" y="-349.8" font-family="Times,serif" font-size="14.00">&lt;code object gen_frame_graph at 0x7f5d05</text>
</g>
<!-- o140037798498240&#45;&gt;o140037498631808 -->
<g id="edge2" class="edge">
<title>o140037798498240&#45;&gt;o140037498631808</title>
<path fill="none" stroke="black" d="M1529.56,-416.96C1550.56,-407.13 1576.74,-394.88 1599.04,-384.44"/>
<polygon fill="black" stroke="black" points="1600.77,-387.5 1608.34,-380.09 1597.8,-381.16 1600.77,-387.5"/>
</g>
<!-- o140037847756736 -->
<g id="node4" class="node">
<title>o140037847756736</title>
<polygon fill="#c3c3c3" stroke="black" points="591.5,-202 520.5,-202 520.5,-164 591.5,-164 591.5,-202"/>
<text text-anchor="middle" x="556" y="-186.8" font-family="Times,serif" font-size="14.00">dict</text>
<text text-anchor="middle" x="556" y="-171.8" font-family="Times,serif" font-size="14.00">158 items</text>
</g>
<!-- o140037798498240&#45;&gt;o140037847756736 -->
<g id="edge3" class="edge">
<title>o140037798498240&#45;&gt;o140037847756736</title>
<path fill="none" stroke="black" d="M1386.22,-431.72C1229.48,-423.42 927.52,-394.14 695,-291 650.15,-271.11 606.71,-233.88 580.65,-209.01"/>
<polygon fill="black" stroke="black" points="583.08,-206.49 573.46,-202.04 578.21,-211.51 583.08,-206.49"/>
</g>
<!-- o140037804072256 -->
<g id="node5" class="node">
<title>o140037804072256</title>
<polygon fill="#c3c3c3" stroke="black" points="1499.5,-202 1428.5,-202 1428.5,-164 1499.5,-164 1499.5,-202"/>
<text text-anchor="middle" x="1464" y="-186.8" font-family="Times,serif" font-size="14.00">dict</text>
<text text-anchor="middle" x="1464" y="-171.8" font-family="Times,serif" font-size="14.00">167 items</text>
</g>
<!-- o140037798498240&#45;&gt;o140037804072256 -->
<g id="edge4" class="edge">
<title>o140037798498240&#45;&gt;o140037804072256</title>
<path fill="none" stroke="black" d="M1489.18,-416.91C1485.87,-384.19 1478.61,-313 1472,-253 1470.53,-239.65 1468.82,-224.86 1467.37,-212.4"/>
<polygon fill="black" stroke="black" points="1470.81,-211.68 1466.16,-202.15 1463.85,-212.49 1470.81,-211.68"/>
<text text-anchor="middle" x="1505.5" y="-312.8" font-family="Times,serif" font-size="14.00">f_globals</text>
</g>
<!-- too_many_o140037798498240 -->
<g id="node6" class="node">
<title>too_many_o140037798498240</title>
<polygon fill="#c30000" stroke="red" points="1855,-370 1793,-370 1793,-352 1855,-352 1855,-370"/>
<text text-anchor="middle" x="1824" y="-359.7" font-family="Times,serif" font-size="6.00" fill="white">3 more references</text>
</g>
<!-- o140037798498240&#45;&gt;too_many_o140037798498240 -->
<g id="edge5" class="edge">
<title>o140037798498240&#45;&gt;too_many_o140037798498240</title>
<path fill="none" stroke="red" stroke-dasharray="1,5" d="M1595.53,-421.54C1652.11,-412.73 1722.77,-399.22 1784,-380 1789.05,-378.42 1794.3,-376.37 1799.28,-374.22"/>
<polygon fill="red" stroke="red" points="1800.73,-377.4 1808.38,-370.07 1797.83,-371.03 1800.73,-377.4"/>
</g>
<!-- o140037498235504&#45;&gt;o140037847756736 -->
<g id="edge8" class="edge">
<title>o140037498235504&#45;&gt;o140037847756736</title>
<path fill="none" stroke="black" d="M1243.48,-355.47C1133.34,-348.63 953.12,-331.79 803,-291 728.01,-270.63 646.23,-231.57 598.12,-206.71"/>
<polygon fill="black" stroke="black" points="599.73,-203.6 589.24,-202.08 596.49,-209.81 599.73,-203.6"/>
</g>
<!-- o140037498235504&#45;&gt;o140037804072256 -->
<g id="edge9" class="edge">
<title>o140037498235504&#45;&gt;o140037804072256</title>
<path fill="none" stroke="black" d="M1357.29,-341.83C1378.36,-310.66 1421.5,-246.86 1445.98,-210.65"/>
<polygon fill="black" stroke="black" points="1449.08,-212.32 1451.78,-202.07 1443.28,-208.4 1449.08,-212.32"/>
<text text-anchor="middle" x="1442.5" y="-268.3" font-family="Times,serif" font-size="14.00">f_globals</text>
</g>
<!-- o94892728199088 -->
<g id="node7" class="node">
<title>o94892728199088</title>
<polygon fill="#878787" stroke="black" points="1028,-291 812,-291 812,-253 1028,-253 1028,-291"/>
<text text-anchor="middle" x="920" y="-275.8" font-family="Times,serif" font-size="14.00">frame</text>
<text text-anchor="middle" x="920" y="-260.8" font-family="Times,serif" font-size="14.00">/tmp/ipykernel_84/3307467266.py:1</text>
</g>
<!-- o140037498235504&#45;&gt;o94892728199088 -->
<g id="edge6" class="edge">
<title>o140037498235504&#45;&gt;o94892728199088</title>
<path fill="none" stroke="black" d="M1256.94,-341.97C1187.28,-327.71 1090.06,-307.81 1017.95,-293.05"/>
<polygon fill="black" stroke="black" points="1018.45,-289.58 1007.95,-291 1017.04,-296.44 1018.45,-289.58"/>
</g>
<!-- o140037496614288 -->
<g id="node8" class="node">
<title>o140037496614288</title>
<polygon fill="#878787" stroke="black" points="1295.5,-291 1046.5,-291 1046.5,-253 1295.5,-253 1295.5,-291"/>
<text text-anchor="middle" x="1171" y="-275.8" font-family="Times,serif" font-size="14.00">code</text>
<text text-anchor="middle" x="1171" y="-260.8" font-family="Times,serif" font-size="14.00">&lt;code object func_b at 0x7f5d053dad90, f</text>
</g>
<!-- o140037498235504&#45;&gt;o140037496614288 -->
<g id="edge7" class="edge">
<title>o140037498235504&#45;&gt;o140037496614288</title>
<path fill="none" stroke="black" d="M1308.95,-341.97C1282,-328.5 1244.99,-309.99 1216.08,-295.54"/>
<polygon fill="black" stroke="black" points="1217.52,-292.35 1207.01,-291 1214.39,-298.61 1217.52,-292.35"/>
</g>
<!-- too_many_o140037498235504 -->
<g id="node9" class="node">
<title>too_many_o140037498235504</title>
<polygon fill="#870000" stroke="red" points="1376,-281 1314,-281 1314,-263 1376,-263 1376,-281"/>
<text text-anchor="middle" x="1345" y="-270.7" font-family="Times,serif" font-size="6.00" fill="white">1 more references</text>
</g>
<!-- o140037498235504&#45;&gt;too_many_o140037498235504 -->
<g id="edge10" class="edge">
<title>o140037498235504&#45;&gt;too_many_o140037498235504</title>
<path fill="none" stroke="red" stroke-dasharray="1,5" d="M1345,-341.97C1345,-327.06 1345,-305.98 1345,-291.06"/>
<polygon fill="red" stroke="red" points="1348.5,-291.05 1345,-281.05 1341.5,-291.05 1348.5,-291.05"/>
</g>
<!-- o140037847756656 -->
<g id="node10" class="node">
<title>o140037847756656</title>
<polygon fill="#878787" stroke="black" points="62,-113 0,-113 0,-75 62,-75 62,-113"/>
<text text-anchor="middle" x="31" y="-97.8" font-family="Times,serif" font-size="14.00">str</text>
<text text-anchor="middle" x="31" y="-82.8" font-family="Times,serif" font-size="14.00">&#39;builtins&#39;</text>
</g>
<!-- o140037847756736&#45;&gt;o140037847756656 -->
<g id="edge11" class="edge">
<title>o140037847756736&#45;&gt;o140037847756656</title>
<path fill="none" stroke="black" d="M520.19,-179.29C459.44,-174.42 332.41,-163.09 226,-146 159.58,-135.33 139.71,-134.93 72.06,-113.03"/>
<polygon fill="black" stroke="black" points="72.79,-109.58 62.19,-109.8 70.61,-116.24 72.79,-109.58"/>
<text text-anchor="middle" x="255" y="-134.8" font-family="Times,serif" font-size="14.00">__name__</text>
</g>
<!-- o140037847649776 -->
<g id="node11" class="node">
<title>o140037847649776</title>
<polygon fill="#878787" stroke="black" points="312,-113 80,-113 80,-75 312,-75 312,-113"/>
<text text-anchor="middle" x="196" y="-97.8" font-family="Times,serif" font-size="14.00">str</text>
<text text-anchor="middle" x="196" y="-82.8" font-family="Times,serif" font-size="14.00">&quot;Built&#45;in functions, exceptions, and oth</text>
</g>
<!-- o140037847756736&#45;&gt;o140037847649776 -->
<g id="edge12" class="edge">
<title>o140037847756736&#45;&gt;o140037847649776</title>
<path fill="none" stroke="black" d="M520.18,-178.35C475.93,-173.35 398.57,-163 334,-146 304.87,-138.33 273.29,-126.91 247.7,-116.81"/>
<polygon fill="black" stroke="black" points="248.79,-113.48 238.21,-113.02 246.2,-119.98 248.79,-113.48"/>
<text text-anchor="middle" x="357.5" y="-134.8" font-family="Times,serif" font-size="14.00">__doc__</text>
</g>
<!-- o140037847171120 -->
<g id="node12" class="node">
<title>o140037847171120</title>
<polygon fill="#878787" stroke="black" points="384,-113 330,-113 330,-75 384,-75 384,-113"/>
<text text-anchor="middle" x="357" y="-97.8" font-family="Times,serif" font-size="14.00">str</text>
<text text-anchor="middle" x="357" y="-82.8" font-family="Times,serif" font-size="14.00">&#39;&#39;</text>
</g>
<!-- o140037847756736&#45;&gt;o140037847171120 -->
<g id="edge13" class="edge">
<title>o140037847756736&#45;&gt;o140037847171120</title>
<path fill="none" stroke="black" d="M520.38,-179.84C487.59,-176.48 438.65,-167.9 402,-146 391.6,-139.78 382.31,-130.36 374.91,-121.3"/>
<polygon fill="black" stroke="black" points="377.54,-118.97 368.67,-113.18 371.99,-123.24 377.54,-118.97"/>
<text text-anchor="middle" x="438" y="-134.8" font-family="Times,serif" font-size="14.00">__package__</text>
</g>
<!-- o94892714358576 -->
<g id="node13" class="node">
<title>o94892714358576</title>
<polygon fill="#878787" stroke="black" points="504,-113 402,-113 402,-75 504,-75 504,-113"/>
<text text-anchor="middle" x="453" y="-97.8" font-family="Times,serif" font-size="14.00">type</text>
<text text-anchor="middle" x="453" y="-82.8" font-family="Times,serif" font-size="14.00">BuiltinImporter</text>
</g>
<!-- o140037847756736&#45;&gt;o94892714358576 -->
<g id="edge14" class="edge">
<title>o140037847756736&#45;&gt;o94892714358576</title>
<path fill="none" stroke="black" d="M520.48,-165.86C510.37,-160.36 499.74,-153.64 491,-146 482.98,-138.99 475.6,-130.02 469.53,-121.56"/>
<polygon fill="black" stroke="black" points="472.23,-119.32 463.7,-113.04 466.46,-123.27 472.23,-119.32"/>
<text text-anchor="middle" x="521.5" y="-134.8" font-family="Times,serif" font-size="14.00">__loader__</text>
</g>
<!-- too_many_o140037847756736 -->
<g id="node14" class="node">
<title>too_many_o140037847756736</title>
<polygon fill="#870000" stroke="red" points="590,-103 522,-103 522,-85 590,-85 590,-103"/>
<text text-anchor="middle" x="556" y="-92.7" font-family="Times,serif" font-size="6.00" fill="white">154 more references</text>
</g>
<!-- o140037847756736&#45;&gt;too_many_o140037847756736 -->
<g id="edge15" class="edge">
<title>o140037847756736&#45;&gt;too_many_o140037847756736</title>
<path fill="none" stroke="red" stroke-dasharray="1,5" d="M556,-163.97C556,-149.06 556,-127.98 556,-113.06"/>
<polygon fill="red" stroke="red" points="559.5,-113.05 556,-103.05 552.5,-113.05 559.5,-113.05"/>
</g>
<!-- o140037847624944 -->
<g id="node15" class="node">
<title>o140037847624944</title>
<polygon fill="#878787" stroke="black" points="1058,-113 982,-113 982,-75 1058,-75 1058,-113"/>
<text text-anchor="middle" x="1020" y="-97.8" font-family="Times,serif" font-size="14.00">str</text>
<text text-anchor="middle" x="1020" y="-82.8" font-family="Times,serif" font-size="14.00">&#39;__main__&#39;</text>
</g>
<!-- o140037804072256&#45;&gt;o140037847624944 -->
<g id="edge16" class="edge">
<title>o140037804072256&#45;&gt;o140037847624944</title>
<path fill="none" stroke="black" d="M1428.46,-166.62C1425.3,-165.61 1422.12,-164.71 1419,-164 1303.47,-137.67 1268.72,-171.5 1153,-146 1123.66,-139.54 1092.22,-127.72 1067.27,-117.09"/>
<polygon fill="black" stroke="black" points="1068.62,-113.86 1058.05,-113.09 1065.83,-120.28 1068.62,-113.86"/>
<text text-anchor="middle" x="1182" y="-134.8" font-family="Times,serif" font-size="14.00">__name__</text>
</g>
<!-- o140037821794992 -->
<g id="node16" class="node">
<title>o140037821794992</title>
<polygon fill="#878787" stroke="black" points="1320,-113 1076,-113 1076,-75 1320,-75 1320,-113"/>
<text text-anchor="middle" x="1198" y="-97.8" font-family="Times,serif" font-size="14.00">str</text>
<text text-anchor="middle" x="1198" y="-82.8" font-family="Times,serif" font-size="14.00">&#39;Automatically created module for IPytho</text>
</g>
<!-- o140037804072256&#45;&gt;o140037821794992 -->
<g id="edge17" class="edge">
<title>o140037804072256&#45;&gt;o140037821794992</title>
<path fill="none" stroke="black" d="M1428.44,-166.71C1425.28,-165.68 1422.11,-164.75 1419,-164 1377.78,-154.02 1264.94,-168.51 1229,-146 1220.14,-140.45 1213.44,-131.35 1208.59,-122.36"/>
<polygon fill="black" stroke="black" points="1211.66,-120.68 1204.18,-113.18 1205.35,-123.71 1211.66,-120.68"/>
<text text-anchor="middle" x="1252.5" y="-134.8" font-family="Times,serif" font-size="14.00">__doc__</text>
</g>
<!-- o94892681361344 -->
<g id="node17" class="node">
<title>o94892681361344</title>
<polygon fill="#878787" stroke="black" points="1411.5,-113 1338.5,-113 1338.5,-75 1411.5,-75 1411.5,-113"/>
<text text-anchor="middle" x="1375" y="-97.8" font-family="Times,serif" font-size="14.00">NoneType</text>
<text text-anchor="middle" x="1375" y="-82.8" font-family="Times,serif" font-size="14.00">None</text>
</g>
<!-- o140037804072256&#45;&gt;o94892681361344 -->
<g id="edge18" class="edge">
<title>o140037804072256&#45;&gt;o94892681361344</title>
<path fill="none" stroke="black" d="M1428.41,-166.83C1425.26,-165.78 1422.09,-164.81 1419,-164 1389.51,-156.28 1303.09,-168.93 1283,-146 1278.61,-140.99 1279.24,-136.51 1283,-131 1283,-131 1305.96,-122.02 1328.94,-113.03"/>
<polygon fill="black" stroke="black" points="1330.34,-116.24 1338.37,-109.33 1327.79,-109.72 1330.34,-116.24"/>
<text text-anchor="middle" x="1319" y="-134.8" font-family="Times,serif" font-size="14.00">__package__</text>
</g>
<!-- o140037804072256&#45;&gt;o94892681361344 -->
<g id="edge19" class="edge">
<title>o140037804072256&#45;&gt;o94892681361344</title>
<path fill="none" stroke="black" d="M1428.23,-166.7C1409.97,-158.61 1390.97,-149.61 1388,-146 1382.69,-139.55 1379.51,-131.21 1377.63,-123.14"/>
<polygon fill="black" stroke="black" points="1381.06,-122.47 1375.86,-113.24 1374.17,-123.7 1381.06,-122.47"/>
<text text-anchor="middle" x="1424" y="-134.8" font-family="Times,serif" font-size="14.00">__package__</text>
</g>
<!-- too_many_o140037804072256 -->
<g id="node18" class="node">
<title>too_many_o140037804072256</title>
<polygon fill="#870000" stroke="red" points="1498,-103 1430,-103 1430,-85 1498,-85 1498,-103"/>
<text text-anchor="middle" x="1464" y="-92.7" font-family="Times,serif" font-size="6.00" fill="white">163 more references</text>
</g>
<!-- o140037804072256&#45;&gt;too_many_o140037804072256 -->
<g id="edge20" class="edge">
<title>o140037804072256&#45;&gt;too_many_o140037804072256</title>
<path fill="none" stroke="red" stroke-dasharray="1,5" d="M1464,-163.97C1464,-149.06 1464,-127.98 1464,-113.06"/>
<polygon fill="red" stroke="red" points="1467.5,-113.05 1464,-103.05 1460.5,-113.05 1467.5,-113.05"/>
</g>
<!-- o94892728199088&#45;&gt;o140037847756736 -->
<g id="edge23" class="edge">
<title>o94892728199088&#45;&gt;o140037847756736</title>
<path fill="none" stroke="black" d="M827.6,-252.96C753.54,-238.17 654.59,-217.6 601.5,-202.17"/>
<polygon fill="black" stroke="black" points="602.42,-198.79 591.83,-199.26 600.39,-205.5 602.42,-198.79"/>
</g>
<!-- o94892728199088&#45;&gt;o140037804072256 -->
<g id="edge24" class="edge">
<title>o94892728199088&#45;&gt;o140037804072256</title>
<path fill="none" stroke="black" d="M1028.04,-254.3C1031.06,-253.86 1034.05,-253.42 1037,-253 1203.23,-229.12 1251.45,-244.83 1418.29,-201.8"/>
<polygon fill="black" stroke="black" points="1419.62,-205.08 1428.41,-199.16 1417.85,-198.3 1419.62,-205.08"/>
<text text-anchor="middle" x="1361.5" y="-223.8" font-family="Times,serif" font-size="14.00">f_locals</text>
</g>
<!-- o94892726461504 -->
<g id="node19" class="node">
<title>o94892726461504</title>
<polygon fill="#4c4c4c" stroke="black" points="1410.5,-202 969.5,-202 969.5,-164 1410.5,-164 1410.5,-202"/>
<text text-anchor="middle" x="1190" y="-186.8" font-family="Times,serif" font-size="14.00" fill="white">frame</text>
<text text-anchor="middle" x="1190" y="-171.8" font-family="Times,serif" font-size="14.00" fill="white">/opt/conda/lib/python3.10/site&#45;packages/IPython/core/interactiveshell.py:3433</text>
</g>
<!-- o94892728199088&#45;&gt;o94892726461504 -->
<g id="edge21" class="edge">
<title>o94892728199088&#45;&gt;o94892726461504</title>
<path fill="none" stroke="black" d="M975.94,-252.97C1019.12,-239.06 1078.94,-219.79 1124.37,-205.15"/>
<polygon fill="black" stroke="black" points="1125.68,-208.4 1134.13,-202 1123.54,-201.74 1125.68,-208.4"/>
</g>
<!-- o140037496611472 -->
<g id="node20" class="node">
<title>o140037496611472</title>
<polygon fill="#4c4c4c" stroke="black" points="870.5,-202 609.5,-202 609.5,-164 870.5,-164 870.5,-202"/>
<text text-anchor="middle" x="740" y="-186.8" font-family="Times,serif" font-size="14.00" fill="white">code</text>
<text text-anchor="middle" x="740" y="-171.8" font-family="Times,serif" font-size="14.00" fill="white">&lt;code object &lt;module&gt; at 0x7f5d053da290,</text>
</g>
<!-- o94892728199088&#45;&gt;o140037496611472 -->
<g id="edge22" class="edge">
<title>o94892728199088&#45;&gt;o140037496611472</title>
<path fill="none" stroke="black" d="M882.7,-252.97C854.83,-239.5 816.54,-220.99 786.64,-206.54"/>
<polygon fill="black" stroke="black" points="787.77,-203.2 777.25,-202 784.73,-209.51 787.77,-203.2"/>
</g>
<!-- too_many_o94892728199088 -->
<g id="node21" class="node">
<title>too_many_o94892728199088</title>
<polygon fill="#4c0000" stroke="red" points="951,-192 889,-192 889,-174 951,-174 951,-192"/>
<text text-anchor="middle" x="920" y="-181.7" font-family="Times,serif" font-size="6.00" fill="white">1 more references</text>
</g>
<!-- o94892728199088&#45;&gt;too_many_o94892728199088 -->
<g id="edge25" class="edge">
<title>o94892728199088&#45;&gt;too_many_o94892728199088</title>
<path fill="none" stroke="red" stroke-dasharray="1,5" d="M920,-252.97C920,-238.06 920,-216.98 920,-202.06"/>
<polygon fill="red" stroke="red" points="923.5,-202.05 920,-192.05 916.5,-202.05 923.5,-202.05"/>
</g>
<!-- o140037847881984 -->
<g id="node22" class="node">
<title>o140037847881984</title>
<polygon fill="#4c4c4c" stroke="black" points="368,-38 304,-38 304,0 368,0 368,-38"/>
<text text-anchor="middle" x="336" y="-22.8" font-family="Times,serif" font-size="14.00" fill="white">dict</text>
<text text-anchor="middle" x="336" y="-7.8" font-family="Times,serif" font-size="14.00" fill="white">14 items</text>
</g>
<!-- o94892714358576&#45;&gt;o140037847881984 -->
<g id="edge26" class="edge">
<title>o94892714358576&#45;&gt;o140037847881984</title>
<path fill="none" stroke="black" d="M424.08,-74.96C408.89,-65.48 390.09,-53.75 373.77,-43.57"/>
<polygon fill="black" stroke="black" points="375.33,-40.41 364.99,-38.09 371.63,-46.35 375.33,-40.41"/>
</g>
<!-- o140037847880320 -->
<g id="node23" class="node">
<title>o140037847880320</title>
<polygon fill="#4c4c4c" stroke="black" points="443.5,-38 386.5,-38 386.5,0 443.5,0 443.5,-38"/>
<text text-anchor="middle" x="415" y="-22.8" font-family="Times,serif" font-size="14.00" fill="white">tuple</text>
<text text-anchor="middle" x="415" y="-7.8" font-family="Times,serif" font-size="14.00" fill="white">2 items</text>
</g>
<!-- o94892714358576&#45;&gt;o140037847880320 -->
<g id="edge27" class="edge">
<title>o94892714358576&#45;&gt;o140037847880320</title>
<path fill="none" stroke="black" d="M443.61,-74.96C439.22,-66.53 433.91,-56.33 429.06,-47.01"/>
<polygon fill="black" stroke="black" points="432.14,-45.34 424.42,-38.09 425.93,-48.58 432.14,-45.34"/>
</g>
<!-- o140037847168672 -->
<g id="node24" class="node">
<title>o140037847168672</title>
<polygon fill="#4c4c4c" stroke="black" points="518.5,-38 461.5,-38 461.5,0 518.5,0 518.5,-38"/>
<text text-anchor="middle" x="490" y="-22.8" font-family="Times,serif" font-size="14.00" fill="white">tuple</text>
<text text-anchor="middle" x="490" y="-7.8" font-family="Times,serif" font-size="14.00" fill="white">1 items</text>
</g>
<!-- o94892714358576&#45;&gt;o140037847168672 -->
<g id="edge28" class="edge">
<title>o94892714358576&#45;&gt;o140037847168672</title>
<path fill="none" stroke="black" d="M462.15,-74.96C466.42,-66.53 471.59,-56.33 476.31,-47.01"/>
<polygon fill="black" stroke="black" points="479.43,-48.59 480.83,-38.09 473.19,-45.43 479.43,-48.59"/>
</g>
<!-- o94892681349280 -->
<g id="node25" class="node">
<title>o94892681349280</title>
<polygon fill="#4c4c4c" stroke="black" points="591,-38 537,-38 537,0 591,0 591,-38"/>
<text text-anchor="middle" x="564" y="-22.8" font-family="Times,serif" font-size="14.00" fill="white">type</text>
<text text-anchor="middle" x="564" y="-7.8" font-family="Times,serif" font-size="14.00" fill="white">object</text>
</g>
<!-- o94892714358576&#45;&gt;o94892681349280 -->
<g id="edge29" class="edge">
<title>o94892714358576&#45;&gt;o94892681349280</title>
<path fill="none" stroke="black" d="M480.44,-74.96C494.96,-65.41 512.95,-53.57 528.52,-43.34"/>
<polygon fill="black" stroke="black" points="530.45,-46.26 536.88,-37.84 526.6,-40.41 530.45,-46.26"/>
</g>
</g>
</svg>
