<?xml version="1.0" encoding="UTF-8" standalone="no"?>
<!DOCTYPE svg PUBLIC "-//W3C//DTD SVG 1.1//EN"
 "http://www.w3.org/Graphics/SVG/1.1/DTD/svg11.dtd">
<!-- Generated by graphviz version 2.43.0 (0)
 -->
<!-- Title: ObjectGraph Pages: 1 -->
<svg width="1578pt" height="299pt"
 viewBox="0.00 0.00 1577.50 299.00" xmlns="http://www.w3.org/2000/svg" xmlns:xlink="http://www.w3.org/1999/xlink">
<g id="graph0" class="graph" transform="scale(1 1) rotate(0) translate(4 295)">
<title>ObjectGraph</title>
<polygon fill="white" stroke="transparent" points="-4,4 -4,-295 1573.5,-295 1573.5,4 -4,4"/>
<!-- o140037496612176 -->
<g id="node1" class="node">
<title>o140037496612176</title>
<polygon fill="#ffffff" stroke="black" points="243,-38 0,-38 0,0 243,0 243,-38"/>
<text text-anchor="middle" x="121.5" y="-22.8" font-family="Times,serif" font-size="14.00" fill="red">code</text>
<text text-anchor="middle" x="121.5" y="-7.8" font-family="Times,serif" font-size="14.00" fill="red">&lt;code object foo at 0x7f5d053da550, file</text>
</g>
<!-- o140037797885072 -->
<g id="node2" class="node">
<title>o140037797885072</title>
<polygon fill="#c3c3c3" stroke="black" points="226,-291 17,-291 17,-253 226,-253 226,-291"/>
<text text-anchor="middle" x="121.5" y="-275.8" font-family="Times,serif" font-size="14.00">function</text>
<text text-anchor="middle" x="121.5" y="-260.8" font-family="Times,serif" font-size="14.00">&lt;function foo at 0x7f5d1732b490&gt;</text>
</g>
<!-- o140037797885072&#45;&gt;o140037496612176 -->
<g id="edge1" class="edge">
<title>o140037797885072&#45;&gt;o140037496612176</title>
<path fill="none" stroke="black" d="M121.5,-252.95C121.5,-209.82 121.5,-100.5 121.5,-48.42"/>
<polygon fill="black" stroke="black" points="125,-48.22 121.5,-38.22 118,-48.23 125,-48.22"/>
<text text-anchor="middle" x="148" y="-134.8" font-family="Times,serif" font-size="14.00">__code__</text>
</g>
<!-- o140037804072256 -->
<g id="node5" class="node">
<title>o140037804072256</title>
<polygon fill="#878787" stroke="black" points="823.5,-202 759.5,-202 759.5,-164 823.5,-164 823.5,-202"/>
<text text-anchor="middle" x="791.5" y="-186.8" font-family="Times,serif" font-size="14.00">dict</text>
<text text-anchor="middle" x="791.5" y="-171.8" font-family="Times,serif" font-size="14.00">46 items</text>
</g>
<!-- o140037797885072&#45;&gt;o140037804072256 -->
<g id="edge12" class="edge">
<title>o140037797885072&#45;&gt;o140037804072256</title>
<path fill="none" stroke="black" d="M135.88,-252.97C146.34,-241.31 161.58,-227.04 178.5,-220 230.8,-198.24 618.74,-187.8 748.99,-184.88"/>
<polygon fill="black" stroke="black" points="749.43,-188.37 759.35,-184.65 749.28,-181.37 749.43,-188.37"/>
<text text-anchor="middle" x="212" y="-223.8" font-family="Times,serif" font-size="14.00">__globals__</text>
</g>
<!-- o140037542913136 -->
<g id="node3" class="node">
<title>o140037542913136</title>
<polygon fill="#c3c3c3" stroke="black" points="896,-113 687,-113 687,-75 896,-75 896,-113"/>
<text text-anchor="middle" x="791.5" y="-97.8" font-family="Times,serif" font-size="14.00">frame</text>
<text text-anchor="middle" x="791.5" y="-82.8" font-family="Times,serif" font-size="14.00">/tmp/ipykernel_84/604005253.py:5</text>
</g>
<!-- o140037542913136&#45;&gt;o140037496612176 -->
<g id="edge2" class="edge">
<title>o140037542913136&#45;&gt;o140037496612176</title>
<path fill="none" stroke="black" d="M686.81,-81.59C569.82,-68.85 380.18,-48.18 253.2,-34.35"/>
<polygon fill="black" stroke="black" points="253.35,-30.84 243.03,-33.24 252.59,-37.8 253.35,-30.84"/>
</g>
<!-- o140037542913136&#45;&gt;o140037804072256 -->
<g id="edge14" class="edge">
<title>o140037542913136&#45;&gt;o140037804072256</title>
<path fill="none" stroke="black" d="M791.5,-113C791.5,-124.78 791.5,-140.41 791.5,-153.82"/>
<polygon fill="black" stroke="black" points="788,-153.97 791.5,-163.97 795,-153.97 788,-153.97"/>
<text text-anchor="middle" x="817" y="-134.8" font-family="Times,serif" font-size="14.00">f_globals</text>
</g>
<!-- o140037498233504 -->
<g id="node4" class="node">
<title>o140037498233504</title>
<polygon fill="#c3c3c3" stroke="black" points="1123,-113 914,-113 914,-75 1123,-75 1123,-113"/>
<text text-anchor="middle" x="1018.5" y="-97.8" font-family="Times,serif" font-size="14.00">frame</text>
<text text-anchor="middle" x="1018.5" y="-82.8" font-family="Times,serif" font-size="14.00">/tmp/ipykernel_84/604005253.py:5</text>
</g>
<!-- o140037498233504&#45;&gt;o140037496612176 -->
<g id="edge3" class="edge">
<title>o140037498233504&#45;&gt;o140037496612176</title>
<path fill="none" stroke="black" d="M913.88,-76C911.06,-75.65 908.26,-75.32 905.5,-75 676.85,-48.82 409.16,-33.26 253.13,-25.69"/>
<polygon fill="black" stroke="black" points="253.17,-22.19 243.02,-25.21 252.84,-29.18 253.17,-22.19"/>
</g>
<!-- o140037804072256&#45;&gt;o140037797885072 -->
<g id="edge4" class="edge">
<title>o140037804072256&#45;&gt;o140037797885072</title>
<path fill="none" stroke="black" d="M759.29,-184.53C682.71,-186.2 483.95,-193.02 320.5,-220 276.73,-227.22 228.51,-239.47 190.51,-250.15"/>
<polygon fill="black" stroke="black" points="189.24,-246.87 180.57,-252.97 191.15,-253.6 189.24,-246.87"/>
<text text-anchor="middle" x="330" y="-223.8" font-family="Times,serif" font-size="14.00">foo</text>
</g>
<!-- o140037804072256&#45;&gt;o140037542913136 -->
<g id="edge5" class="edge">
<title>o140037804072256&#45;&gt;o140037542913136</title>
<path fill="none" stroke="black" d="M769.34,-163.79C764.53,-158.6 760.1,-152.55 757.5,-146 754.09,-137.43 756.89,-128.82 762.08,-121.18"/>
<polygon fill="black" stroke="black" points="764.88,-123.28 768.47,-113.31 759.45,-118.86 764.88,-123.28"/>
<text text-anchor="middle" x="763.5" y="-134.8" font-family="Times,serif" font-size="14.00">f1</text>
</g>
<!-- o140037804072256&#45;&gt;o140037498233504 -->
<g id="edge6" class="edge">
<title>o140037804072256&#45;&gt;o140037498233504</title>
<path fill="none" stroke="black" d="M823.54,-169.72C859.41,-155.97 918.21,-133.44 961.87,-116.7"/>
<polygon fill="black" stroke="black" points="963.14,-119.97 971.22,-113.12 960.63,-113.43 963.14,-119.97"/>
<text text-anchor="middle" x="924.5" y="-134.8" font-family="Times,serif" font-size="14.00">f2</text>
</g>
<!-- o140037798074944 -->
<g id="node6" class="node">
<title>o140037798074944</title>
<polygon fill="#4c4c4c" stroke="black" points="308.5,-291 244.5,-291 244.5,-253 308.5,-253 308.5,-291"/>
<text text-anchor="middle" x="276.5" y="-275.8" font-family="Times,serif" font-size="14.00" fill="white">dict</text>
<text text-anchor="middle" x="276.5" y="-260.8" font-family="Times,serif" font-size="14.00" fill="white">47 items</text>
</g>
<!-- o140037798074944&#45;&gt;o140037804072256 -->
<g id="edge7" class="edge">
<title>o140037798074944&#45;&gt;o140037804072256</title>
<path fill="none" stroke="black" d="M306.13,-252.98C326.55,-241.49 354.74,-227.4 381.5,-220 449.9,-201.08 658.99,-189.85 749.27,-185.76"/>
<polygon fill="black" stroke="black" points="749.58,-189.25 759.42,-185.31 749.27,-182.26 749.58,-189.25"/>
<text text-anchor="middle" x="402.5" y="-223.8" font-family="Times,serif" font-size="14.00">user_ns</text>
</g>
<!-- o140037797931152 -->
<g id="node7" class="node">
<title>o140037797931152</title>
<polygon fill="#0f4c00" stroke="black" points="398,-291 327,-291 327,-253 398,-253 398,-291"/>
<text text-anchor="middle" x="362.5" y="-275.8" font-family="Times,serif" font-size="14.00" fill="white">module</text>
<text text-anchor="middle" x="362.5" y="-260.8" font-family="Times,serif" font-size="14.00" fill="white">__main__</text>
</g>
<!-- o140037797931152&#45;&gt;o140037804072256 -->
<g id="edge8" class="edge">
<title>o140037797931152&#45;&gt;o140037804072256</title>
<path fill="none" stroke="black" d="M391.7,-252.91C411.5,-241.53 438.67,-227.61 464.5,-220 563.41,-190.84 685.46,-184.91 748.81,-183.94"/>
<polygon fill="black" stroke="black" points="749.24,-187.44 759.2,-183.82 749.16,-180.44 749.24,-187.44"/>
<text text-anchor="middle" x="488.5" y="-223.8" font-family="Times,serif" font-size="14.00">__dict__</text>
</g>
<!-- o140037797917120 -->
<g id="node8" class="node">
<title>o140037797917120</title>
<polygon fill="#4c4c4c" stroke="black" points="473,-291 416,-291 416,-253 473,-253 473,-291"/>
<text text-anchor="middle" x="444.5" y="-275.8" font-family="Times,serif" font-size="14.00" fill="white">dict</text>
<text text-anchor="middle" x="444.5" y="-260.8" font-family="Times,serif" font-size="14.00" fill="white">3 items</text>
</g>
<!-- o140037797917120&#45;&gt;o140037804072256 -->
<g id="edge9" class="edge">
<title>o140037797917120&#45;&gt;o140037804072256</title>
<path fill="none" stroke="black" d="M473.37,-254.52C494.6,-243.11 524.53,-228.5 552.5,-220 619.45,-199.65 700.6,-190.54 749.03,-186.66"/>
<polygon fill="black" stroke="black" points="749.44,-190.14 759.15,-185.88 748.91,-183.16 749.44,-190.14"/>
<text text-anchor="middle" x="584.5" y="-223.8" font-family="Times,serif" font-size="14.00">user_global</text>
</g>
<!-- o140037798225216 -->
<g id="node9" class="node">
<title>o140037798225216</title>
<polygon fill="#4c4c4c" stroke="black" points="555.5,-291 491.5,-291 491.5,-253 555.5,-253 555.5,-291"/>
<text text-anchor="middle" x="523.5" y="-275.8" font-family="Times,serif" font-size="14.00" fill="white">dict</text>
<text text-anchor="middle" x="523.5" y="-260.8" font-family="Times,serif" font-size="14.00" fill="white">22 items</text>
</g>
<!-- o140037798225216&#45;&gt;o140037804072256 -->
<g id="edge10" class="edge">
<title>o140037798225216&#45;&gt;o140037804072256</title>
<path fill="none" stroke="black" d="M555.61,-256.57C558.6,-255.33 561.6,-254.12 564.5,-253 627.75,-228.63 703.48,-207.08 749.51,-194.8"/>
<polygon fill="black" stroke="black" points="750.66,-198.11 759.43,-192.17 748.86,-191.35 750.66,-198.11"/>
<text text-anchor="middle" x="688" y="-223.8" font-family="Times,serif" font-size="14.00">namespace</text>
</g>
<!-- o140037809412496 -->
<g id="node10" class="node">
<title>o140037809412496</title>
<polygon fill="#4c4c4c" stroke="black" points="783,-291 574,-291 574,-253 783,-253 783,-291"/>
<text text-anchor="middle" x="678.5" y="-275.8" font-family="Times,serif" font-size="14.00" fill="white">frame</text>
<text text-anchor="middle" x="678.5" y="-260.8" font-family="Times,serif" font-size="14.00" fill="white">/tmp/ipykernel_84/946622219.py:4</text>
</g>
<!-- o140037809412496&#45;&gt;o140037804072256 -->
<g id="edge11" class="edge">
<title>o140037809412496&#45;&gt;o140037804072256</title>
<path fill="none" stroke="black" d="M701.91,-252.97C718.73,-240.03 741.59,-222.43 760,-208.25"/>
<polygon fill="black" stroke="black" points="762.33,-210.88 768.12,-202 758.06,-205.33 762.33,-210.88"/>
<text text-anchor="middle" x="764" y="-223.8" font-family="Times,serif" font-size="14.00">f_locals</text>
</g>
<!-- o140037496506544 -->
<g id="node11" class="node">
<title>o140037496506544</title>
<polygon fill="#4c4c4c" stroke="black" points="1009.5,-291 801.5,-291 801.5,-253 1009.5,-253 1009.5,-291"/>
<text text-anchor="middle" x="905.5" y="-275.8" font-family="Times,serif" font-size="14.00" fill="white">function</text>
<text text-anchor="middle" x="905.5" y="-260.8" font-family="Times,serif" font-size="14.00" fill="white">&lt;function bar at 0x7f5d053c08b0&gt;</text>
</g>
<!-- o140037496506544&#45;&gt;o140037804072256 -->
<g id="edge13" class="edge">
<title>o140037496506544&#45;&gt;o140037804072256</title>
<path fill="none" stroke="black" d="M881.88,-252.97C864.91,-240.03 841.85,-222.43 823.27,-208.25"/>
<polygon fill="black" stroke="black" points="825.16,-205.29 815.09,-202 820.92,-210.85 825.16,-205.29"/>
<text text-anchor="middle" x="888" y="-223.8" font-family="Times,serif" font-size="14.00">__globals__</text>
</g>
<!-- o140037798536784 -->
<g id="node12" class="node">
<title>o140037798536784</title>
<polygon fill="#4c4c4c" stroke="black" points="1243.5,-291 1027.5,-291 1027.5,-253 1243.5,-253 1243.5,-291"/>
<text text-anchor="middle" x="1135.5" y="-275.8" font-family="Times,serif" font-size="14.00" fill="white">frame</text>
<text text-anchor="middle" x="1135.5" y="-260.8" font-family="Times,serif" font-size="14.00" fill="white">/tmp/ipykernel_84/4225256379.py:4</text>
</g>
<!-- o140037798536784&#45;&gt;o140037804072256 -->
<g id="edge15" class="edge">
<title>o140037798536784&#45;&gt;o140037804072256</title>
<path fill="none" stroke="black" d="M1064.22,-252.97C994.6,-235.37 890.99,-209.16 833.6,-194.65"/>
<polygon fill="black" stroke="black" points="834.33,-191.22 823.78,-192.16 832.61,-198.01 834.33,-191.22"/>
<text text-anchor="middle" x="1009" y="-223.8" font-family="Times,serif" font-size="14.00">f_globals</text>
</g>
<!-- o94892728580896 -->
<g id="node13" class="node">
<title>o94892728580896</title>
<polygon fill="#4c4c4c" stroke="black" points="1477.5,-291 1261.5,-291 1261.5,-253 1477.5,-253 1477.5,-291"/>
<text text-anchor="middle" x="1369.5" y="-275.8" font-family="Times,serif" font-size="14.00" fill="white">frame</text>
<text text-anchor="middle" x="1369.5" y="-260.8" font-family="Times,serif" font-size="14.00" fill="white">/tmp/ipykernel_84/4225256379.py:5</text>
</g>
<!-- o94892728580896&#45;&gt;o140037804072256 -->
<g id="edge16" class="edge">
<title>o94892728580896&#45;&gt;o140037804072256</title>
<path fill="none" stroke="black" d="M1261.46,-254.13C1196.79,-244.08 1112.96,-231.16 1038.5,-220 966.68,-209.23 883.05,-197.14 833.84,-190.06"/>
<polygon fill="black" stroke="black" points="834.28,-186.59 823.88,-188.63 833.28,-193.52 834.28,-186.59"/>
<text text-anchor="middle" x="1150" y="-223.8" font-family="Times,serif" font-size="14.00">f_locals</text>
</g>
<!-- too_many_o140037804072256 -->
<g id="node14" class="node">
<title>too_many_o140037804072256</title>
<polygon fill="#4c0000" stroke="red" points="1569.5,-281 1495.5,-281 1495.5,-263 1569.5,-263 1569.5,-281"/>
<text text-anchor="middle" x="1532.5" y="-270.7" font-family="Times,serif" font-size="6.00" fill="white">2 more backreferences</text>
</g>
<!-- too_many_o140037804072256&#45;&gt;o140037804072256 -->
<g id="edge17" class="edge">
<title>too_many_o140037804072256&#45;&gt;o140037804072256</title>
<path fill="none" stroke="red" stroke-dasharray="1,5" d="M1514.95,-262.85C1506.52,-259.28 1496.16,-255.36 1486.5,-253 1244.53,-193.95 943.41,-185.24 833.85,-184.1"/>
<polygon fill="red" stroke="red" points="833.58,-180.6 823.55,-184.01 833.52,-187.6 833.58,-180.6"/>
</g>
</g>
</svg>
